<svg id="Layer_1" data-name="Layer 1" xmlns="http://www.w3.org/2000/svg" viewBox="0 0 100 100"><defs><style>.cls-1{fill:#005a96;}</style></defs><title>Solution Group Icons</title><path class="cls-1" d="M54.83,41.46c-1-2.94-2.2-5.73-2.2-9.25a19.6,19.6,0,0,1,3.66-11.77L48.1,10.55H10L1.78,20.44A19.6,19.6,0,0,1,5.44,32.21c0,3.52-1.15,6.31-2.2,9.25a20.35,20.35,0,0,0-1.65,7.82v.15A18.76,18.76,0,0,0,15.14,67.29C19,68.42,26.05,68.6,29,73.72c3-5.12,10-5.3,13.9-6.43A18.76,18.76,0,0,0,56.48,49.43v-.15A20.35,20.35,0,0,0,54.83,41.46ZM36.34,47.23l4.52,13.88L29,52.52,17.21,61.11l4.52-13.88L9.93,38.64H24.52L29,24.76l4.51,13.88H48.14Z"/><rect class="cls-1" x="69.54" y="25.19" width="20.33" height="16.96" transform="translate(11.6 87.03) rotate(-60.98)"/><path class="cls-1" d="M66,35.18l-.7,1.29a2.42,2.42,0,0,1-3.28,1l0,0c-4.43-2.46,7-23.16,11.44-20.71l0,0A2.41,2.41,0,0,1,74.43,20l-.7,1.3Z"/><path class="cls-1" d="M76.91,45.66,57.52,86.19c-.09.18-.19.36-.29.53a5.67,5.67,0,0,1-7.89,1.84,5.86,5.86,0,0,1-1.84-8L71,42.33Z"/><path class="cls-1" d="M85.93,50.62a2.41,2.41,0,0,1-1-3.28l.7-1.3,7.7-13.88.7-1.3a2.43,2.43,0,0,1,3.29-.94l0,0c4.44,2.45-7,23.15-11.44,20.7Z"/></svg>