<?xml version="1.0" encoding="utf-8"?>
<!-- Generator: Adobe Illustrator 24.0.1, SVG Export Plug-In . SVG Version: 6.00 Build 0)  -->
<svg version="1.1" id="Layer_1" xmlns="http://www.w3.org/2000/svg" xmlns:xlink="http://www.w3.org/1999/xlink" x="0px" y="0px"
	 viewBox="0 0 100 100" style="enable-background:new 0 0 100 100;" xml:space="preserve">
<style type="text/css">
	.st0{fill:#333333;}
</style>
<path class="st0" d="M95.9,39.3c-1.4,4.1-2.7,8.2-4.2,12.3c-0.4,0.8-1,1.3-1.9,1.5c-6.1,0.1-12.2,0.1-18.6,0.1
	c-0.8-4.9-1.6-9.7-2.4-14.5c-0.7-4.1-1.3-8.1-1.9-12.2c-0.4-2.6-1.8-4-3.8-4.1s-3.4,1.3-3.9,3.8c-1.4,6.7-2.8,13.4-4.2,19.8
	c-1.6-0.2-3.3-1-4.6-0.5s-2.2,2-3,3.2c-1.2,1.8-2.2,3.8-3.5,6.1c-2.3-5.6-4.3-10.9-6.5-16c-0.5-1.3-1.4-2.3-2.6-3
	c-1.9-1-3.9,0-5,2.4c-2.1,4.4-4.1,8.9-6.1,13.3c-0.3,1.2-1.5,1.9-2.7,1.8c-3.4-0.1-6.9-0.1-10.3,0c-1.2,0.2-2.4-0.6-2.7-1.8
	c-1.3-4-2.7-8.1-4-12.1V32c0.6-2.1,1.1-4.2,1.8-6.3c6.9-20.6,31-24.4,43.4-9.4c0.2,0.2,0.4,0.4,0.7,0.6c5.1-5.9,11.3-9.3,19-9.6
	c11.9-0.5,22,7.2,25.7,19.2c0.6,2,1,4,1.5,6L95.9,39.3z"/>
<path class="st0" d="M50,92.8L14.8,61.5l0.2-0.6c3,0,6-0.1,9,0c2.4,0.3,4.6-1.1,5.3-3.4c1.1-2.8,2.5-5.5,4-8.7
	c2.1,5.1,4,9.8,5.9,14.6c0.2,0.4,0.2,1,0.5,1.2c1.1,1,2.2,2.5,3.4,2.5c1.4-0.2,2.8-0.9,3.6-2.1c1.8-2.5,3.2-5.4,4.9-8.4
	c0.6,1,0.9,1.9,1.6,2.4c1.2,0.8,2.7,1.9,3.8,1.7c1.4-0.5,2.5-1.5,3-2.9c0.8-2.6,1.4-5.2,1.8-7.8c0.1-0.6,0.3-1.3,0.7-2.5
	c0.6,3.5,1.1,6.3,1.5,9.2c0.5,3.1,1.7,4.2,4.9,4.2c5.3,0,10.5,0,15.8,0l0.3,0.6L50,92.8z"/>
</svg>
