<svg id="Layer_1" data-name="Layer 1" xmlns="http://www.w3.org/2000/svg" viewBox="0 0 100 100"><defs><style>.cls-1{fill:#005a96;}</style></defs><title>Solution Group Icons</title><path class="cls-1" d="M73.32,50.22,56,57A18.44,18.44,0,0,1,44,57L25,49.55,20,63.14a6,6,0,0,0,1.37,5.64s8.83,8.92,27.72,8.92c20.36,0,27.75-8.78,27.75-8.78A6.53,6.53,0,0,0,78,63.14Z"/><path class="cls-1" d="M95.82,34.76,54.3,21.21a16.1,16.1,0,0,0-8.6,0L4.18,34.77c-2.37.77-2.42,2.13-.12,3L45.82,54a13.45,13.45,0,0,0,8.37,0l31-12V54h-.69a.65.65,0,0,0-.68.51L81.92,78.86c0,.28.24.51.59.51h8.58a.54.54,0,0,0,.6-.51L89.83,54.51a.65.65,0,0,0-.68-.51h-.69V40.69l7.48-2.9C98.24,36.9,98.19,35.54,95.82,34.76Z"/></svg>