<?xml version="1.0" encoding="utf-8"?>
<!-- Generator: Adobe Illustrator 24.0.1, SVG Export Plug-In . SVG Version: 6.00 Build 0)  -->
<svg version="1.1" id="Layer_1" xmlns="http://www.w3.org/2000/svg" xmlns:xlink="http://www.w3.org/1999/xlink" x="0px" y="0px"
	 viewBox="0 0 100 100" style="enable-background:new 0 0 100 100;" xml:space="preserve">
<style type="text/css">
	.st0{fill-rule:evenodd;clip-rule:evenodd;fill:#333333;}
</style>
<title>Icon-Dictionary</title>
<path class="st0" d="M96.8,50c0-1.5-0.1-2.9-0.2-4.3c-0.3-3-2.2-3.6-4.5-3.8c-7.4-0.8-11.2-10.2-6.6-15.9c1.8-2.1,2-4.1,0.5-5.9
	c-0.9-1.1-1.9-2.2-2.9-3.2c-1-1-2.1-2-3.1-2.9c-1.8-1.5-4-1.2-5.9,0.5c-5.7,4.7-15.2,0.8-15.9-6.6c-0.3-2.5-0.9-4.2-3.8-4.5
	c-1.4-0.1-2.9-0.2-4.3-0.2s-2.9,0.1-4.3,0.2c-2.9,0.4-3.5,2.1-3.8,4.5c-0.8,7.4-10.2,11.2-15.9,6.6c-2-1.7-4.1-1.9-5.9-0.5
	c-1.1,0.9-2.2,1.9-3.2,2.9s-2,2.1-2.9,3.2c-1.5,1.9-1.3,3.8,0.5,5.9c4.7,5.7,0.8,15.2-6.6,15.9c-2.4,0.2-4.2,0.8-4.5,3.8
	c-0.1,1.4-0.2,2.9-0.2,4.3s0.1,2.9,0.2,4.3c0.3,3,2.2,3.6,4.5,3.8c7.4,0.8,11.2,10.2,6.6,15.9c-1.8,2.1-2,4.1-0.5,5.9
	c0.9,1.1,1.9,2.2,2.9,3.2s2.1,2,3.2,2.9c1.8,1.5,4,1.2,5.9-0.5c5.7-4.7,15.2-0.8,15.9,6.6c0.3,2.5,0.9,4.2,3.8,4.5
	c1.4,0.1,2.9,0.2,4.3,0.2s2.9-0.1,4.3-0.2c2.9-0.4,3.5-2,3.8-4.5c0.8-7.4,10.2-11.2,15.9-6.6c2,1.7,4.1,1.9,5.9,0.5
	c1.1-0.9,2.2-1.9,3.2-2.9c1-1,2-2.1,2.9-3.1c1.5-1.8,1.3-3.8-0.5-5.9c-4.7-5.7-0.8-15.2,6.6-15.9c2.4-0.2,4.2-0.8,4.5-3.8
	C96.8,52.9,96.8,51.5,96.8,50L96.8,50z M50,35.3c8.1,0,14.7,6.6,14.7,14.7S58.1,64.7,50,64.7S35.3,58.1,35.3,50S41.9,35.3,50,35.3
	L50,35.3z M50,26.3c13.1,0,23.7,10.6,23.7,23.7c0,13.1-10.6,23.7-23.7,23.7S26.3,63.1,26.3,50c0,0,0,0,0,0
	C26.3,36.9,36.9,26.3,50,26.3L50,26.3z"/>
</svg>
