<svg id="Layer_1" data-name="Layer 1" xmlns="http://www.w3.org/2000/svg" viewBox="0 0 100 100"><defs><style>.cls-1{fill:#005a96;fill-rule:evenodd;}</style></defs><title>Solution Group Icons</title><path class="cls-1" d="M29.5,78.15l-1-24.75h.58l.77-2.22H22.53l.77,2.22h.59l-1,24.75h-.85L21.63,81h9.16l-.44-2.85Zm41,0,1-24.75h-.58l-.77-2.22h7.36L76.7,53.4h-.59l1,24.75h.85L78.37,81H69.21l.44-2.85Zm-15.86,0,1-24.75H55l-.77-2.22h7.36l-.77,2.22h-.59l1,24.75h.85L62.51,81H53.35l.44-2.85Zm26.88,4.39v5.33h-63V82.54Zm4.74,13V89.61H13.74v5.91Zm-4.74-46.2h-63V44.81H16.43v-5.7L50,22.71l33.57,16.4v5.7h-2v4.51ZM50,29.36,75.54,41.84H24.46L50,29.36ZM45.36,78.15l-1-24.75H45l.77-2.22H38.39l.77,2.22h.59l-1,24.75h-.85L37.49,81h9.16l-.44-2.85ZM52.8,5.37a14.88,14.88,0,0,1,9-.34c2.47.76,4.42,1.78,7.31.06v10c-2.86,1.91-5.6,2.37-8.63.72a6.83,6.83,0,0,0-7.63.33V5.37ZM48.53,21.93V5.36h2.94V21.93L50,21.2Z"/></svg>