<svg xmlns="http://www.w3.org/2000/svg" xmlns:xlink="http://www.w3.org/1999/xlink" width="82" height="82" viewBox="0 0 82 82"><defs><path id="ip7qa" d="M502.75 1413.52a37.7 37.7 0 0 1-3.31-15.88c0-20.3 15.25-37.02 34.84-39.14v4.28a35.07 35.07 0 0 0-30.62 34.86c0 5.03.87 9.42 2.76 13.75zm37.5-44.4v-10.62c14.78 0 27.41 7.35 34.8 20.25 11.1 19.36 4.52 44.13-14.7 55.31a39.77 39.77 0 0 1-20.06 5.43 40.11 40.11 0 0 1-34.84-20.25l8.88-5.17a29.6 29.6 0 0 0 25.61 14.82c16.39 0 29.66-13.39 29.66-29.9 0-16.4-13.1-29.7-29.35-29.88zm-4.11 12.54v-3.91h7.55v3.91c5.28 1.37 9.12 5.54 9.12 10.47h-7.85c0-2.36-2.25-4.28-5.03-4.28-5.04 0-5.79 4.74-4.36 6.02.66.59 1.93 1.58 5.48 2.04 17.52 2.3 13.14 18.73 2.65 20.8v3.53h-7.55l-.01-3.54c-4.65-1.2-8.17-4.6-8.93-8.76h8.1a5.13 5.13 0 0 0 4.61 2.58c5.04 0 5.93-4.43 4.3-5.94-.58-.52-1.97-1.3-4.42-1.59-17.57-2.04-15.34-18.39-3.66-21.33z"/></defs><g><g transform="translate(-499 -1358)"><use fill="#6bb5c0" xlink:href="#ip7qa"/></g></g></svg>