<svg xmlns="http://www.w3.org/2000/svg" xmlns:xlink="http://www.w3.org/1999/xlink" width="87" height="62" viewBox="0 0 87 62"><defs><path id="7u2ga" d="M297.37 1394.42v28.67a6.43 6.43 0 0 1-6.42 6.44H246.8a6.43 6.43 0 0 1-6.42-6.44V1407l5.1 1.37v1.51h46.77v-15.46c0-.73-.59-1.32-1.31-1.32h-37.49a2.56 2.56 0 0 1 0-5.12h3.88l-5.06-3.97h-7.63s-3.16 5.48-3.16 7.1c0 1.61.66 1.56 3.77 2.99 2.05.94 8.45 1.96 10.7 6.49 2.04 4.14.72 8.18-7.65 5.24-3.46-1.21-18.31-4.98-24.73-7.27-4.4-3.73-11.82-11.78-11.82-11.78v-18.38c5.55 0 27.84.03 35.44 0 3.81-.01 7.5 1.31 10.35 3.86l15.84 15.72h17.56a6.43 6.43 0 0 1 6.42 6.44zm-5.1 28.67v-3.27H245.5v3.27c0 .73.59 1.32 1.31 1.32h44.14c.72 0 1.31-.6 1.31-1.32z"/></defs><g><g transform="translate(-211 -1368)"><use fill="#2f9fc0" xlink:href="#7u2ga"/></g></g></svg>