<svg xmlns="http://www.w3.org/2000/svg" xmlns:xlink="http://www.w3.org/1999/xlink" width="72" height="88" viewBox="0 0 72 88"><defs><path id="rm4ta" d="M844.62 1411.2c2.97-.48 8.93-1.32 8.93-1.32l2.2.93 2.17 1.07-.57 4.8-2.36.53-2.36.39-1.36 3.96 1.64 1.75 1.55 1.86-2.48 4.15-2.37-.48-2.32-.6-2.84 3.07.78 2.26.65 2.32-3.95 2.8-1.97-1.41-1.86-1.5-3.86 1.65-.2 2.38-.35 2.4-4.74.94-1.23-2.09-1.1-2.12-4.19-.06-1.15 2.09-1.3 2.05-4.7-1.08-.29-2.4-.13-2.39-3.8-1.76-1.91 1.45-2.01 1.34-3.88-2.9.73-2.3.85-2.24-2.76-3.16-2.33.55-2.39.4-2.35-4.22 1.6-1.8 1.68-1.7-1.24-4.01-2.35-.45-2.34-.6-.44-4.82 2.2-1 1.86-.72c2.96.95 6.17 1.62 9.29 2.1a19.7 19.7 0 0 0 39.35-.11zm16.35-19.01v7.15c0 1.03-.46 2-1.26 2.66-6.64 5.41-22.77 6.6-30.65 6.6h-8.19c-7.87 0-24-1.19-30.64-6.6a3.43 3.43 0 0 1-1.26-2.66v-7.15c0-1.8.93-3.53 2.56-4.75l.98-.72c3.21-10.63 7.9-23.65 19.45-26.86.87 3.65.56 7.54-.1 12.58-.64 4.92-4.23 17.78-3.33 18.31l.05.02c1.08 0 7.1-13.15 7.78-18.33.7-5.35 1.02-9.55-.07-13.24.19-1.05 1.75-2.75 3.07-3.1.61-.17 3.1-.25 5.6-.25 2.5 0 5 .08 5.61.25 1.32.35 2.89 2.05 3.07 3.1-1.08 3.7-.77 7.9-.07 13.24.68 5.19 6.7 18.33 7.78 18.33a.1.1 0 0 0 .06-.02c.9-.53-2.7-13.4-3.33-18.31-.66-5.04-.98-8.93-.1-12.58 11.55 3.2 16.23 16.23 19.45 26.86l.97.72a5.97 5.97 0 0 1 2.57 4.75z"/></defs><g><g transform="translate(-789 -1355)"><use fill="#1078c0" xlink:href="#rm4ta"/></g></g></svg>