<svg xmlns="http://www.w3.org/2000/svg" xmlns:xlink="http://www.w3.org/1999/xlink" width="77" height="85" viewBox="0 0 77 85"><defs><path id="2aiza" d="M1142.75 1361.8v60.36a4.15 4.15 0 0 1-4.15 4.15h-3.37v3.37a4.15 4.15 0 0 1-4.15 4.15h-3.37v3.87a3.65 3.65 0 0 1-3.65 3.65h-47.77a3.65 3.65 0 0 1-3.65-3.65v-21.16l4.86-3.12v23.06h45.34v-58.93h-45.34v21.34l-4.86 3.12v-25.67a3.65 3.65 0 0 1 3.65-3.65h3.87v-3.38a4.15 4.15 0 0 1 4.15-4.14h3.37v-3.38a4.15 4.15 0 0 1 4.15-4.14h46.77a4.15 4.15 0 0 1 4.15 4.14zm-12.39 8.23h-45.33v2.66h39.03a3.65 3.65 0 0 1 3.65 3.65v52.62h2.65zm7.52-7.52h-45.33v2.66h38.53a4.15 4.15 0 0 1 4.15 4.14v52.13h2.65zm-71.13 46.21l14.03-9a14.3 14.3 0 0 1-.55-7.96 14.41 14.41 0 0 1 17.13-11 14.41 14.41 0 0 1 11 17.13 14.41 14.41 0 0 1-23.6 7.7l-14.18 9.1c-.5.32-1.19.17-1.51-.33l-2.65-4.12a1.1 1.1 0 0 1 .33-1.52zm36.48-11.95a9.15 9.15 0 0 0-17.86-3.9 9.15 9.15 0 0 0 17.86 3.9z"/></defs><g><g transform="translate(-1066 -1357)"><use fill="#2f9fc0" xlink:href="#2aiza"/></g></g></svg>