<?xml version="1.0" encoding="utf-8"?>
<!-- Generator: Adobe Illustrator 22.1.0, SVG Export Plug-In . SVG Version: 6.00 Build 0)  -->
<svg version="1.1" id="Layer_1" xmlns="http://www.w3.org/2000/svg" xmlns:xlink="http://www.w3.org/1999/xlink" x="0px" y="0px"
	 viewBox="0 0 98 74" style="enable-background:new 0 0 98 74;" xml:space="preserve">
<g>
	<g transform="translate(-1014 -2127)">
		<g>
			<path id="jgt8a"  d="M1046.1,2169.7c-11.7-1.1-16.2-6.4-16.2-6.4c-0.9-1.2-1.3-2.8-0.8-4.3l3.5-9.7l12.9,5.1
				c1.7,0.6,3.6,0.9,5.4,0.7c-1,0.9-1.8,1.9-2.6,3.2c-1.4,2.5-2.2,5.3-2.3,8.2V2169.7z M1112,2166.3v6.4c0,0.8-0.6,1.4-1.4,1.4h-3.2
				c-0.8,0-1.4-0.6-1.4-1.4v-6.4c0-0.8,0.6-1.4,1.4-1.4c-0.3-1.8-1.2-4.5-3.7-5.3v39.7c0,0.8-0.7,1.5-1.5,1.5h-6.3
				c-0.8,0-1.5-0.7-1.5-1.5v-4.9h-27.7v4.9c0,0.8-0.7,1.5-1.5,1.5h-6.3c-0.8,0-1.5-0.7-1.5-1.5v-39.7c-2.5,0.8-3.4,3.5-3.7,5.3
				c0.8,0,1.4,0.6,1.4,1.4v6.4c0,0.8-0.6,1.4-1.4,1.4h-3.2c-0.8,0-1.4-0.6-1.4-1.4v-6.4l0-0.2c0.2-3.7,2.1-10.2,8.3-11.1v-7.7
				c0,0,0.6-6.7,23.2-6.7c22.6,0,23.2,6.7,23.2,6.7v7.7c6.2,0.9,8.1,7.4,8.3,11.1L1112,2166.3L1112,2166.3z M1073.5,2146.5
				c0,0.9,0.7,1.6,1.6,1.6h10.8c0.9,0,1.6-0.7,1.6-1.6c0-0.9-0.7-1.6-1.6-1.6h-10.8C1074.2,2144.8,1073.5,2145.6,1073.5,2146.5z
				 M1062.8,2177.4h35.4v-21.6c0-2.1-1.7-3.8-3.8-3.9h-27.8c-2.1,0-3.8,1.7-3.8,3.9L1062.8,2177.4z M1069.3,2185.5
				c0-1.4-1.1-2.5-2.5-2.5h-4c-1.4,0-2.5,1.1-2.5,2.5v1.2c0,1.4,1.1,2.5,2.5,2.5h4c1.4,0,2.5-1.1,2.5-2.5L1069.3,2185.5z
				 M1086.7,2186.7h-12.4v2.7h12.4V2186.7z M1100.7,2185.5c0-1.4-1.1-2.5-2.5-2.5c0,0,0,0,0,0h-4c-1.4,0-2.5,1.1-2.5,2.5v1.2
				c0,1.4,1.1,2.5,2.5,2.5h4c1.4,0,2.5-1.1,2.5-2.5V2185.5z M1024.8,2152.4l1.4,18.3c0,0.2-0.2,0.4-0.4,0.4h-6.4
				c-0.3,0-0.5-0.2-0.4-0.4l1.4-18.3c0-0.2,0.3-0.4,0.5-0.4h0.5v-10l-5.6-2.2c-1.7-0.7-1.7-1.7,0.1-2.3l31-10.2
				c1.8-0.6,4.7-0.6,6.4,0l30.9,10.2c0.3,0.1,0.6,0.2,0.8,0.4c-1.4-0.1-2.9-0.1-4.6-0.1c-23.3,0-25.8,7.1-25.9,9.2v4.4l-1.3,0.5
				c-2,0.7-4.2,0.7-6.2,0l-23.1-9v9.1h0.5C1024.5,2152.1,1024.7,2152.2,1024.8,2152.4L1024.8,2152.4z"/>
		</g>
	</g>
</g>
</svg>
