<?xml version="1.0" encoding="utf-8"?>
<!-- Generator: Adobe Illustrator 22.1.0, SVG Export Plug-In . SVG Version: 6.00 Build 0)  -->
<svg version="1.1" id="Layer_1" xmlns="http://www.w3.org/2000/svg" xmlns:xlink="http://www.w3.org/1999/xlink" x="0px" y="0px"
	 viewBox="0 0 64 87" style="enable-background:new 0 0 64 87;" xml:space="preserve">
<g>
	<g transform="translate(-272 -2121)">
		<g>
			<path id="_x35_ej0a" d="M335.5,2129v71.1c0,4-3.2,7.2-7.2,7.2h-48.6c-4,0-7.2-3.2-7.2-7.2V2129c0-4,3.2-7.2,7.2-7.2
				h48.6C332.3,2121.8,335.5,2125,335.5,2129L335.5,2129z M292.6,2193.3c0-2.4-1.9-4.3-4.3-4.3c-2.4,0-4.3,1.9-4.3,4.3l0,0
				c0,2.4,1.9,4.3,4.3,4.3C290.7,2197.6,292.6,2195.6,292.6,2193.3z M292.6,2180.4c0-2.4-1.9-4.3-4.3-4.3c-2.4,0-4.3,1.9-4.3,4.3
				l0,0c0,2.4,1.9,4.3,4.3,4.3C290.7,2184.7,292.6,2182.8,292.6,2180.4z M292.6,2167.5c0-2.4-1.9-4.3-4.3-4.3
				c-2.4,0-4.3,1.9-4.3,4.3c0,2.4,1.9,4.3,4.3,4.3C290.7,2171.9,292.6,2169.9,292.6,2167.5C292.6,2167.6,292.6,2167.6,292.6,2167.5
				L292.6,2167.5z M308.3,2193.2c0-2.4-1.9-4.3-4.3-4.3c-2.4,0-4.3,1.9-4.3,4.3l0,0c0,2.4,1.9,4.3,4.3,4.3
				C306.4,2197.6,308.3,2195.6,308.3,2193.2L308.3,2193.2z M308.3,2180.4c0-2.4-1.9-4.3-4.3-4.3c-2.4,0-4.3,1.9-4.3,4.3
				c0,2.4,1.9,4.3,4.3,4.3C306.4,2184.7,308.3,2182.8,308.3,2180.4C308.3,2180.4,308.3,2180.4,308.3,2180.4z M308.3,2167.5
				c0-2.4-1.9-4.3-4.3-4.3c-2.4,0-4.3,1.9-4.3,4.3c0,2.4,1.9,4.3,4.3,4.3C306.4,2171.9,308.3,2169.9,308.3,2167.5
				C308.3,2167.6,308.3,2167.6,308.3,2167.5z M324,2193.2c0-2.4-2-4.3-4.3-4.3c-2.4,0-4.3,2-4.3,4.3c0,2.4,1.9,4.3,4.3,4.3
				C322,2197.6,324,2195.7,324,2193.2C324,2193.3,324,2193.3,324,2193.2L324,2193.2z M324,2180.4c0-2.4-1.9-4.3-4.3-4.3
				c-2.4,0-4.3,1.9-4.3,4.3c0,2.4,1.9,4.3,4.3,4.3C322,2184.7,324,2182.8,324,2180.4C324,2180.4,324,2180.4,324,2180.4z M324,2167.5
				c0-2.4-1.9-4.3-4.3-4.3c-2.4,0-4.3,1.9-4.3,4.3s1.9,4.3,4.3,4.3C322,2171.8,324,2169.9,324,2167.5z M327.5,2135.3
				c0-1.9-1.6-3.5-3.5-3.5H284c-1.9,0-3.5,1.6-3.5,3.5v16.2c0,1.9,1.6,3.5,3.5,3.5h39.9c1.9,0,3.5-1.6,3.5-3.5V2135.3z
				 M310.2,2133.4l-10.6,20.1h-2.9l10.6-20.1L310.2,2133.4z M296.8,2144.1c-1.6,0-2.8-0.5-3.5-1.4c-0.8-1.1-1.2-2.3-1.1-3.6
				c0-1.5,0.4-2.8,1.1-3.7c0.7-0.9,1.9-1.4,3.5-1.4c1.6,0,2.8,0.5,3.6,1.4c0.7,0.9,1.1,2.2,1.1,3.7c0.1,1.3-0.3,2.6-1.1,3.6
				C299.6,2143.6,298.4,2144.1,296.8,2144.1z M296.8,2141.8c0.3,0,0.6-0.1,0.8-0.3c0.2-0.2,0.3-0.4,0.4-0.6c0.2-1.2,0.2-2.5,0-3.7
				c-0.1-0.3-0.2-0.5-0.4-0.7c-0.2-0.2-0.5-0.3-0.8-0.3c-0.6,0-1,0.3-1.1,0.9c-0.1,0.6-0.2,1.2-0.2,1.9c0,0.6,0,1.3,0.2,1.8
				C295.8,2141.4,296.2,2141.7,296.8,2141.8L296.8,2141.8z M314.1,2144.2c0.7,0.9,1.1,2.2,1.1,3.7c0.1,1.3-0.3,2.6-1.1,3.6
				c-0.8,0.9-2,1.4-3.6,1.4c-1.6,0-2.8-0.5-3.5-1.4c-0.8-1.1-1.2-2.3-1.1-3.7c0-1.5,0.4-2.8,1.1-3.7c0.7-0.9,1.9-1.4,3.5-1.4
				C312.2,2142.8,313.4,2143.3,314.1,2144.2L314.1,2144.2z M311.9,2147.9c0-0.7,0-1.3-0.1-1.9c-0.1-0.3-0.2-0.5-0.4-0.7
				c-0.2-0.2-0.5-0.3-0.8-0.3c-0.6,0-1,0.3-1.1,0.9c-0.1,0.6-0.2,1.2-0.2,1.8c0,0.6,0,1.2,0.2,1.8c0.1,0.6,0.5,0.9,1.1,0.9
				c0.3,0,0.6-0.1,0.8-0.3c0.2-0.2,0.3-0.4,0.4-0.6C311.8,2149.2,311.9,2148.5,311.9,2147.9L311.9,2147.9z"/>
		</g>
	</g>
</g>
</svg>
