<svg xmlns="http://www.w3.org/2000/svg" xmlns:xlink="http://www.w3.org/1999/xlink" width="87" height="81" viewBox="0 0 87 81"><defs><path id="189ja" d="M583.24 1702.66a22.84 22.84 0 0 1-22.8 22.89 22.84 22.84 0 0 1-22.8-22.89 22.84 22.84 0 0 1 22.8-22.88 22.84 22.84 0 0 1 22.8 22.88zm-5.7 0c0-9.48-7.65-17.16-17.1-17.16-9.44 0-17.1 7.68-17.1 17.16s7.66 17.17 17.1 17.17c9.45 0 17.1-7.69 17.1-17.17zm2.85-29.1c.02.2-.1.39-.3.46-.18.07-.4.02-.52-.14-5.85-8.4-12.64-8.6-19.13-8.47v4.53c0 .48-.25.92-.66 1.13-.4.2-.89.15-1.24-.15l-11.9-10.2a1.3 1.3 0 0 1 0-1.95l11.9-10.19c.35-.3.84-.36 1.24-.15.4.2.66.64.66 1.12v4.93c11.26 1.05 18.85 7.4 19.95 19.08zm-79.8 23.87c-.01-.2.11-.39.3-.46s.41-.02.53.15c5.84 8.39 12.64 8.59 19.13 8.46v-4.53c0-.48.25-.92.66-1.13.4-.2.88-.14 1.23.15l11.91 10.2c.28.24.44.6.44.97 0 .38-.16.74-.44.98l-11.9 10.2c-.36.3-.84.35-1.24.14-.4-.2-.66-.64-.66-1.12v-4.93c-11.26-1.05-18.85-7.4-19.95-19.08zm62.7 15.91v2.76c0 .48-.45.87-1 .87h-3.7c-.55 0-1-.4-1-1.1v-2.39c-2.31-.05-3.73-.74-5.3-1.5-.32-.16-.48-.48-.36-.78l1.03-3.08c.07-.2.25-.35.49-.42.09-.03.19-.05.28-.05.15 0 .3.03.42.1 1.22.59 3.9 1.11 5.88 1.11 2.1 0 3.64-.43 3.64-1.59 0-.9-1.07-1.58-4.3-2.57-4.54-1.36-7.48-3.76-7.48-6.49 0-2.8 2.05-5.34 5.7-6.15v-2.84c0-.47.45-.86 1-.86h3.7c.55 0 1 .39 1 .86v2.62c1.85.16 4.1 1.07 5.33 1.73.31.16.45.48.33.76l-1.05 2.98a.76.76 0 0 1-.5.42 1 1 0 0 1-.72-.06c-.76-.4-3.77-1.23-5.83-1.23-1.88 0-3.53.41-3.53 1.62 0 1.12 1.28 1.66 4.37 2.66 4.65 1.43 7.3 3.19 7.3 6.23 0 3.09-1.74 5.9-5.7 6.4zm-19.95-45a22.84 22.84 0 0 1-22.8 22.88 22.84 22.84 0 0 1-22.8-22.89 22.84 22.84 0 0 1 22.8-22.88 22.84 22.84 0 0 1 22.8 22.88zm-13.96 4.28c0-3.04-2.74-4.8-7.55-6.23-3.2-1-4.5-1.54-4.5-2.66 0-1.2 1.69-1.62 3.64-1.62 2.12 0 5.8.83 6.6 1.23a1.05 1.05 0 0 0 .73.06.78.78 0 0 0 .52-.42l1.09-3.26c.12-.29-.03-.6-.35-.77a20.9 20.9 0 0 0-6.16-1.72v-2.33c0-.48-.47-.87-1.04-.87h-3.62c-.58 0-1.04.39-1.04.87v2.83c-3.78.81-5.99 3.36-5.99 6.16 0 2.72 3.04 5.12 7.73 6.48 3.34 1 4.44 1.67 4.44 2.57 0 1.16-1.6 1.88-3.76 1.88-2.05 0-5.4-.53-6.64-1.11a1.01 1.01 0 0 0-.74-.05c-.24.07-.42.22-.5.42l-1.06 3.36c-.12.3.04.62.38.79 1.61.75 3.74 1.45 6.14 1.5v1.8c0 .72.46 1.1 1.04 1.1h3.62c.57 0 1.04-.38 1.04-.86v-2.76c4.1-.49 5.98-3.3 5.98-6.4z"/></defs><g><g transform="translate(-497 -1645)"><use fill="#1078c0" xlink:href="#189ja"/></g></g></svg>