<?xml version="1.0" encoding="utf-8"?>
<!-- Generator: Adobe Illustrator 22.1.0, SVG Export Plug-In . SVG Version: 6.00 Build 0)  -->
<svg version="1.1" id="Layer_1" xmlns="http://www.w3.org/2000/svg" xmlns:xlink="http://www.w3.org/1999/xlink" x="0px" y="0px"
	 viewBox="0 0 87 88" style="enable-background:new 0 0 87 88;" xml:space="preserve">

<g>
	<g transform="translate(-640 -2120)">
		<g>
			<path id="uv8la"  d="M665.3,2154.7c2.4-4.5,4.7-9.1,7-13.6c0-0.1,0.1-0.2,0.2-0.4l2.1,4c1.8,3.5,3.6,7,5.4,10.6
				c2.2,4.1,0.6,9.2-3.5,11.3c-0.9,0.5-1.9,0.8-3,0.9c-4.5,0.6-8.7-2.4-9.4-6.9C663.9,2158.6,664.3,2156.5,665.3,2154.7
				L665.3,2154.7z M726.2,2155.3v49.3c0,1.9-1.6,3.5-3.5,3.5l0,0h-78.5c-1.9,0-3.5-1.6-3.5-3.5l0,0v-49.3l7.8-6.5v-17.8H670
				l13.5-11.2l13.5,11.2h21.4v17.8L726.2,2155.3z M654.4,2164.2l29.1,18.8l29.1-18.8v-27.3h-58.2L654.4,2164.2z M720.4,2166.1
				l-1.9,1.3l-5.9,3.8l-25.9,16.8l-1.2,0.8l-2,1.3l-2-1.3l-1.2-0.8l-25.9-16.8l-5.9-3.8l-2-1.3v36.2h73.8L720.4,2166.1z
				 M694.3,2150.2l9.9-11.5c0,0-1.2,3.5-2.7,7.7l-2.7,7.7h3.8c2.1,0,3.8,0,3.8,0l-1.4,1.7c-10,12.1-18.2,22-18.2,22l2.6-8.1
				c1.8-5.5,2.6-8.1,2.6-8.1h-7.5L694.3,2150.2L694.3,2150.2z"/>
		</g>
	</g>
</g>
</svg>
