<?xml version="1.0" encoding="utf-8"?>
<!-- Generator: Adobe Illustrator 22.1.0, SVG Export Plug-In . SVG Version: 6.00 Build 0)  -->
<svg version="1.1" id="Layer_1" xmlns="http://www.w3.org/2000/svg" xmlns:xlink="http://www.w3.org/1999/xlink" x="0px" y="0px"
	 viewBox="0 0 81 81" style="enable-background:new 0 0 81 81;" xml:space="preserve">
<g>
	<g transform="translate(-1028 -1714)">
		<g>
			<path id="_x36_v1pa" d="M1037,1751.4h-8.2c1.6-20.7,18.9-36.7,39.7-36.7c12.7,0,24.7,6.2,32.2,16.5l2.1,2.9l5.5-5.5
				v17.1h-17.2l5.6-5.6l-1.3-2.1c-5.7-9.4-16-15.2-27-15.2C1052.2,1722.9,1038.6,1735.3,1037,1751.4L1037,1751.4z M1056.4,1745.1
				c0-6.7,5.4-12.1,12-12.1c6.7,0,12.1,5.4,12.1,12c0,0,0,0,0,0c0,6.7-5.4,12-12.1,12C1061.8,1757.1,1056.4,1751.7,1056.4,1745.1z
				 M1108.3,1757.5c-1.6,20.7-18.9,36.7-39.7,36.7c-12.7,0-24.7-6.2-32.2-16.5l-2.1-2.9l-5.5,5.5v-17.1h17.2l-5.6,5.6l1.3,2.1
				c4.7,7.7,12.4,13,21.3,14.6c0.1,0,0.2,0,0.3,0.1c1.7,0.3,3.5,0.5,5.3,0.5h0.1c16.2,0,29.8-12.3,31.4-28.5L1108.3,1757.5z
				 M1057.1,1760.7h22.8c5.2,0,9.4,5,9.4,11.1v3.8l-0.6,0.6c-5.5,5-12.6,7.8-20.1,7.8c-7.8,0-15.3-3-20.9-8.6v-3.7
				C1047.7,1765.7,1051.9,1760.7,1057.1,1760.7L1057.1,1760.7z"/>
		</g>
	</g>
</g>
</svg>
