<svg xmlns="http://www.w3.org/2000/svg" xmlns:xlink="http://www.w3.org/1999/xlink" width="79" height="65" viewBox="0 0 79 65"><defs><path id="rq6la" d="M319.14 1722.55a6.17 6.17 0 1 1-6.18 6.16c0-3.4 2.77-6.16 6.18-6.16zm10.31 18.87v14.27a3.96 3.96 0 0 1-3.96 3.95h-.98l.01.22v20.6a3.05 3.05 0 0 1-3.06 3.04h-4.65a3.05 3.05 0 0 1-3.05-3.04v-19.77a5.25 5.25 0 0 0 2.94-3.93h.06v-16.85c0-.88-.22-1.71-.61-2.45h9.34a3.96 3.96 0 0 1 3.96 3.96zm3.89-18.87a6.17 6.17 0 0 1 0 12.31 6.17 6.17 0 1 1 0-12.3zm10.31 18.87v14.27a3.96 3.96 0 0 1-3.97 3.95h-.97l.01.22v20.6a3.05 3.05 0 0 1-3.06 3.04h-4.65a3.05 3.05 0 0 1-3.06-3.04v-19.77a5.25 5.25 0 0 0 2.95-3.93h.06v-16.85c0-.88-.22-1.71-.61-2.45h9.33a3.96 3.96 0 0 1 3.97 3.96zm-54.06-18.87a6.17 6.17 0 1 1-6.18 6.16c0-3.4 2.77-6.16 6.18-6.16zm5.38 38.14v19.77a3.05 3.05 0 0 1-3.06 3.04h-4.65a3.05 3.05 0 0 1-3.05-3.04v-20.6-.22h-.97a3.96 3.96 0 0 1-3.96-3.95v-14.27a3.96 3.96 0 0 1 3.96-3.96h9.34a5.2 5.2 0 0 0-.61 2.45v16.06a5.24 5.24 0 0 0 3 4.72zm-19.31-38.14a6.17 6.17 0 1 1-6.18 6.16c0-3.4 2.77-6.16 6.18-6.16zm5.38 38.14v19.77a3.05 3.05 0 0 1-3.06 3.04h-4.65a3.05 3.05 0 0 1-3.05-3.04v-20.6-.22h-.97a3.96 3.96 0 0 1-3.96-3.95v-14.27a3.96 3.96 0 0 1 3.96-3.96h9.34a5.2 5.2 0 0 0-.6 2.45v16.06a5.24 5.24 0 0 0 3 4.72zm17.16-31.98a6.15 6.15 0 0 1 12.32 0 6.15 6.15 0 0 1-12.32 0zm16.97 27.26a3.66 3.66 0 0 1-3.67 3.65h-1.1l-.84.02.06.85V1783.83a2.65 2.65 0 0 1-2.64 2.64h-5.23a2.64 2.64 0 0 1-2.65-2.64v-23.17l.01-.2.06-.84h-1.94a3.66 3.66 0 0 1-3.67-3.66v-16.05a3.66 3.66 0 0 1 3.67-3.66h14.28a3.66 3.66 0 0 1 3.66 3.66z"/></defs><g><g transform="translate(-265 -1722)"><use fill="#fff" xlink:href="#rq6la"/></g></g></svg>