<svg xmlns="http://www.w3.org/2000/svg" xmlns:xlink="http://www.w3.org/1999/xlink" width="98" height="74" viewBox="0 0 98 74"><defs><path id="htl9a" d="M1046.08 2169.66c-11.74-1.13-16.16-6.38-16.16-6.38a4.94 4.94 0 0 1-.84-4.34l3.49-9.72 12.94 5.06a12.57 12.57 0 0 0 5.42.71c-.99.87-1.85 1.93-2.58 3.18a17.8 17.8 0 0 0-2.27 8.17zm65.92-3.32v6.38c0 .76-.62 1.38-1.37 1.38h-3.24c-.75 0-1.37-.62-1.37-1.38v-6.38c0-.76.62-1.39 1.37-1.39-.33-1.75-1.23-4.5-3.69-5.29v39.69c0 .83-.68 1.51-1.5 1.51h-6.34c-.83 0-1.5-.68-1.5-1.51v-4.88h-27.7v4.88c0 .83-.67 1.51-1.5 1.51h-6.34c-.82 0-1.5-.68-1.5-1.51v-39.69c-2.46.8-3.36 3.54-3.69 5.3.76 0 1.37.62 1.37 1.38v6.38c0 .76-.61 1.38-1.37 1.38h-3.24c-.75 0-1.37-.62-1.37-1.38v-6.38l.02-.17c.16-3.67 2.1-10.2 8.28-11.09v-7.74s.56-6.67 23.2-6.67c22.62 0 23.18 6.67 23.18 6.67v7.74c6.18.89 8.13 7.42 8.28 11.09l.02.17zm-38.54-19.84c0 .9.73 1.64 1.64 1.64h10.83c.9 0 1.63-.73 1.63-1.64 0-.92-.73-1.65-1.63-1.65h-10.83c-.9 0-1.64.73-1.64 1.65zm-10.66 30.88h35.42v-21.61a3.85 3.85 0 0 0-3.82-3.86h-27.78a3.85 3.85 0 0 0-3.82 3.86zm6.5 8.14a2.52 2.52 0 0 0-2.5-2.53h-3.97a2.52 2.52 0 0 0-2.5 2.53v1.2a2.52 2.52 0 0 0 2.5 2.52h3.96c1.38 0 2.5-1.14 2.5-2.53zm17.39 1.21h-12.36v2.68h12.36zm14-1.2a2.52 2.52 0 0 0-2.5-2.54h-3.96a2.52 2.52 0 0 0-2.5 2.53v1.2a2.52 2.52 0 0 0 2.5 2.52h3.96c1.38 0 2.5-1.14 2.5-2.53zm-75.94-33.08l1.41 18.3c.02.22-.18.4-.44.4h-6.4c-.25 0-.46-.18-.44-.4l1.38-18.3c.02-.21.25-.39.5-.39h.53v-10l-5.58-2.18c-1.72-.67-1.68-1.7.09-2.28l30.95-10.2c1.76-.57 4.65-.57 6.41.01l30.95 10.2c.33.1.59.24.8.37-1.43-.06-2.95-.1-4.58-.1-23.35 0-25.76 7.06-25.95 9.22v4.44l-1.31.5a9.92 9.92 0 0 1-6.24 0l-23.1-9.03v9.05h.52c.26 0 .48.18.5.39z"/></defs><g><g transform="translate(-1014 -2127)"><use fill="#2f9fc0" xlink:href="#htl9a"/></g></g></svg>