<svg xmlns="http://www.w3.org/2000/svg" xmlns:xlink="http://www.w3.org/1999/xlink" width="64" height="87" viewBox="0 0 64 87"><defs><path id="og1ba" d="M335.5 2128.99v71.05a7.24 7.24 0 0 1-7.2 7.23h-48.6a7.24 7.24 0 0 1-7.21-7.23v-71.05a7.24 7.24 0 0 1 7.2-7.24h48.6c3.96 0 7.2 3.26 7.2 7.24zm-42.9 64.27a4.3 4.3 0 1 0-8.6-.02 4.3 4.3 0 0 0 8.6.02zm0-12.86a4.3 4.3 0 1 0-8.6-.02 4.3 4.3 0 0 0 8.6.02zm0-12.85a4.3 4.3 0 1 0-4.29 4.32 4.3 4.3 0 0 0 4.3-4.32zm15.69 25.7a4.3 4.3 0 1 0-8.62-.01 4.3 4.3 0 0 0 8.62.02zm0-12.85a4.3 4.3 0 1 0-4.3 4.32 4.3 4.3 0 0 0 4.3-4.32zm0-12.85a4.3 4.3 0 1 0-4.3 4.32 4.3 4.3 0 0 0 4.3-4.32zm15.68 25.7a4.3 4.3 0 1 0-4.3 4.33 4.3 4.3 0 0 0 4.3-4.32zm0-12.85a4.3 4.3 0 1 0-4.3 4.32 4.3 4.3 0 0 0 4.3-4.32zm0-12.85a4.3 4.3 0 1 0-8.6 0 4.3 4.3 0 0 0 8.6 0zm3.49-32.24a3.54 3.54 0 0 0-3.52-3.54h-39.9a3.54 3.54 0 0 0-3.52 3.54v16.23a3.54 3.54 0 0 0 3.52 3.53h39.9c1.94 0 3.52-1.59 3.52-3.53zm-17.28-1.9l-10.6 20.07h-2.85l10.6-20.06zm-13.4 10.68c-1.6-.02-2.78-.5-3.52-1.44a5.83 5.83 0 0 1-1.14-3.65c.02-1.54.4-2.77 1.14-3.7.74-.92 1.91-1.38 3.52-1.4 1.61.02 2.8.48 3.56 1.4.74.93 1.1 2.16 1.08 3.7a5.6 5.6 0 0 1-1.08 3.65c-.76.94-1.95 1.42-3.56 1.44zm0-2.33c.32 0 .58-.1.77-.29.17-.16.29-.38.37-.64a11.75 11.75 0 0 0 0-3.68c-.08-.3-.2-.51-.37-.67-.19-.17-.45-.25-.77-.25-.62.03-1 .33-1.12.92-.13.57-.2 1.19-.18 1.85-.01.64.05 1.25.18 1.83.13.6.5.91 1.12.93zm17.35 2.45c.74.92 1.1 2.16 1.08 3.7a5.62 5.62 0 0 1-1.08 3.65c-.76.94-1.95 1.42-3.57 1.44-1.6-.02-2.76-.5-3.5-1.44a5.83 5.83 0 0 1-1.13-3.66c.02-1.53.4-2.76 1.13-3.7.74-.9 1.9-1.38 3.5-1.4 1.62.02 2.81.5 3.57 1.4zm-2.28 3.7c0-.66-.05-1.28-.14-1.85-.07-.3-.19-.51-.35-.67-.2-.17-.46-.25-.8-.25-.6.02-.97.32-1.1.92-.13.57-.19 1.19-.17 1.84a7.6 7.6 0 0 0 .16 1.84c.14.6.51.91 1.12.93.33 0 .6-.1.79-.3.16-.16.28-.37.35-.63.1-.58.14-1.2.14-1.84z"/></defs><g><g transform="translate(-272 -2121)"><use fill="#6bb5c0" xlink:href="#og1ba"/></g></g></svg>