<svg xmlns="http://www.w3.org/2000/svg" xmlns:xlink="http://www.w3.org/1999/xlink" width="81" height="81" viewBox="0 0 81 81"><defs><path id="n6aha" d="M1036.98 1751.44h-8.24a39.85 39.85 0 0 1 39.7-36.71c12.68 0 24.7 6.15 32.19 16.47l2.1 2.9 5.53-5.53v17.14h-17.17l5.6-5.58-1.26-2.05a31.43 31.43 0 0 0-26.99-15.15 31.63 31.63 0 0 0-31.46 28.5zm19.46-6.34a12.05 12.05 0 1 1 24.1.02 12.05 12.05 0 0 1-24.1-.02zm51.82 12.43a39.85 39.85 0 0 1-39.7 36.72 39.9 39.9 0 0 1-32.2-16.48l-2.1-2.9-5.52 5.52v-17.14h17.16l-5.58 5.58 1.25 2.05a31.5 31.5 0 0 0 21.25 14.63c.11.03.23.04.35.06a31.45 31.45 0 0 0 5.28.47h.13a31.63 31.63 0 0 0 31.43-28.5zm-51.18 3.2h22.84c5.17 0 9.37 4.98 9.37 11.13v3.82l-.62.6a29.72 29.72 0 0 1-20.07 7.78 29.56 29.56 0 0 1-20.9-8.55v-3.65c0-6.15 4.2-11.13 9.38-11.13z"/></defs><g><g transform="translate(-1028 -1714)"><use fill="#1078c0" xlink:href="#n6aha"/></g></g></svg>