<svg xmlns="http://www.w3.org/2000/svg" xmlns:xlink="http://www.w3.org/1999/xlink" width="70" height="88" viewBox="0 0 70 88"><defs><path id="ft11a" d="M717.1 1762.9a35.2 35.2 0 0 1-35.11 35.23 35.2 35.2 0 0 1-35.1-35.22 35.2 35.2 0 0 1 35.1-35.22 35.2 35.2 0 0 1 35.1 35.22zm-6.86 0a28.33 28.33 0 0 0-28.25-28.34 28.33 28.33 0 0 0-28.25 28.35 28.33 28.33 0 0 0 28.25 28.34 28.33 28.33 0 0 0 28.25-28.34zm-34.46-36.85V1721h-3.23c-.56 0-1.02-.46-1.02-1.02v-9.05c0-.56.46-1.02 1.02-1.02h18.88c.56 0 1.02.46 1.02 1.02v9.05c0 .56-.46 1.02-1.02 1.02h-3.23v5.22a40.45 40.45 0 0 0-12.42-.16zm28.42 7.37l5.7-5.43c.24-.22.71-.14 1.02.18l5.63 5.95c.17.17.27.4.27.61 0 .1 0 .29-.15.42l-5.45 5.2a40.44 40.44 0 0 0-7.02-6.93zm-51.53 6.93l-5.45-5.2c-.24-.23-.19-.71.12-1.03l5.64-5.95c.18-.2.43-.3.66-.3.13 0 .26.04.35.12l5.7 5.43a40.46 40.46 0 0 0-7.02 6.93zm39.95 14.49h-9.36v-1.56c0-1.66-.1-2.74-.32-3.25-.22-.51-.68-.77-1.39-.77-.57 0-1 .22-1.28.66a3.7 3.7 0 0 0-.43 1.99c0 1.47.3 2.5.88 3.09.57.59 2.25 1.73 5.04 3.44 2.38 1.44 4 2.54 4.87 3.3a8.9 8.9 0 0 1 2.18 3.26c.6 1.4.9 3.14.9 5.23 0 3.35-.8 5.97-2.41 7.88-1.6 1.9-4.02 3.08-7.23 3.53v3.53h-4.3v-3.65a11.2 11.2 0 0 1-6.55-2.89c-1.87-1.68-2.8-4.61-2.8-8.8V1768h9.35v2.3c0 2.53.1 4.1.29 4.7.2.62.66.92 1.4.92.63 0 1.1-.2 1.41-.63.3-.43.46-1.06.46-1.9 0-2.1-.14-3.6-.44-4.51-.29-.91-1.3-1.9-3-2.96a65.28 65.28 0 0 1-5.83-3.97 10.47 10.47 0 0 1-2.66-3.56 11.7 11.7 0 0 1-1.12-5.2c0-2.8.79-5 2.37-6.6 1.58-1.6 3.96-2.58 7.12-2.95v-3h4.3v3c2.89.37 5.05 1.35 6.49 2.92 1.43 1.57 2.15 3.74 2.15 6.51 0 .39-.03.98-.1 1.77z"/></defs><g><g transform="translate(-647 -1710)"><use fill="#6bb5c0" xlink:href="#ft11a"/></g></g></svg>