<svg xmlns="http://www.w3.org/2000/svg" xmlns:xlink="http://www.w3.org/1999/xlink" width="87" height="88" viewBox="0 0 87 88"><defs><path id="35vfa" d="M665.35 2154.7c2.38-4.54 4.69-9.1 7.03-13.65.04-.1.1-.18.2-.36l2.08 4.03c1.8 3.53 3.63 7.04 5.42 10.58a8.37 8.37 0 0 1-6.45 12.24 8.36 8.36 0 0 1-9.4-6.9 9.21 9.21 0 0 1 1.12-5.95zm60.88.64v49.29a3.5 3.5 0 0 1-3.51 3.49h-78.47a3.5 3.5 0 0 1-3.5-3.5v-49.28l7.8-6.47v-17.77h21.43l13.5-11.21 13.52 11.2h21.43v17.78zm-71.82 8.85l29.08 18.83 29.08-18.83v-27.27H654.4zm65.96 1.9l-1.94 1.25-5.86 3.8-25.88 16.76-1.24.8-1.96 1.27-1.97-1.27-1.23-.8-25.88-16.76-5.86-3.8-1.95-1.26v36.22h73.77zm-26.05-15.9l9.92-11.46c.01 0-1.2 3.5-2.7 7.74l-2.72 7.74h3.78c2.08-.01 3.78-.02 3.8-.01l-1.43 1.74c-10 12.09-18.21 21.99-18.22 21.98l2.62-8.13c1.8-5.52 2.62-8.13 2.59-8.14h-7.54l9.9-11.47z"/></defs><g><g transform="translate(-640 -2120)"><use fill="#1078c0" xlink:href="#35vfa"/></g></g></svg>