<svg width="0" height="0" class="hidden">
  <symbol xmlns="http://www.w3.org/2000/svg" xmlns:xlink="http://www.w3.org/1999/xlink"
  viewBox="0 0 87 88" id="shape783-1">
    <title>shape-783</title>
    <desc>A solid styled icon from Orion Icon Library.</desc>
    <defs>
      <path id="de41bf7f-4036-4d39-a731-f49212154519a" d="M665.35 2154.7c2.38-4.54 4.69-9.1 7.03-13.65.04-.1.1-.18.2-.36l2.08 4.03c1.8 3.53 3.63 7.04 5.42 10.58a8.37 8.37 0 0 1-6.45 12.24 8.36 8.36 0 0 1-9.4-6.9 9.21 9.21 0 0 1 1.12-5.95zm60.88.64v49.29a3.5 3.5 0 0 1-3.51 3.49h-78.47a3.5 3.5 0 0 1-3.5-3.5v-49.28l7.8-6.47v-17.77h21.43l13.5-11.21 13.52 11.2h21.43v17.78zm-71.82 8.85l29.08 18.83 29.08-18.83v-27.27H654.4zm65.96 1.9l-1.94 1.25-5.86 3.8-25.88 16.76-1.24.8-1.96 1.27-1.97-1.27-1.23-.8-25.88-16.76-5.86-3.8-1.95-1.26v36.22h73.77zm-26.05-15.9l9.92-11.46c.01 0-1.2 3.5-2.7 7.74l-2.72 7.74h3.78c2.08-.01 3.78-.02 3.8-.01l-1.43 1.74c-10 12.09-18.21 21.99-18.22 21.98l2.62-8.13c1.8-5.52 2.62-8.13 2.59-8.14h-7.54l9.9-11.47z"></path>
    </defs>
    <use fill="#b0b0b0" xlink:href="#de41bf7f-4036-4d39-a731-f49212154519a"
    transform="translate(-640 -2120)"></use>
  </symbol>
  <symbol xmlns="http://www.w3.org/2000/svg" xmlns:xlink="http://www.w3.org/1999/xlink"
  viewBox="0 0 98 74" id="shape786-1">
    <title>shape-786</title>
    <desc>A solid styled icon from Orion Icon Library.</desc>
    <defs>
      <path id="de41bf7f-4036-4d39-a731-f49212154519b" d="M1046.08 2169.66c-11.74-1.13-16.16-6.38-16.16-6.38a4.94 4.94 0 0 1-.84-4.34l3.49-9.72 12.94 5.06a12.57 12.57 0 0 0 5.42.71c-.99.87-1.85 1.93-2.58 3.18a17.8 17.8 0 0 0-2.27 8.17zm65.92-3.32v6.38c0 .76-.62 1.38-1.37 1.38h-3.24c-.75 0-1.37-.62-1.37-1.38v-6.38c0-.76.62-1.39 1.37-1.39-.33-1.75-1.23-4.5-3.69-5.29v39.69c0 .83-.68 1.51-1.5 1.51h-6.34c-.83 0-1.5-.68-1.5-1.51v-4.88h-27.7v4.88c0 .83-.67 1.51-1.5 1.51h-6.34c-.82 0-1.5-.68-1.5-1.51v-39.69c-2.46.8-3.36 3.54-3.69 5.3.76 0 1.37.62 1.37 1.38v6.38c0 .76-.61 1.38-1.37 1.38h-3.24c-.75 0-1.37-.62-1.37-1.38v-6.38l.02-.17c.16-3.67 2.1-10.2 8.28-11.09v-7.74s.56-6.67 23.2-6.67c22.62 0 23.18 6.67 23.18 6.67v7.74c6.18.89 8.13 7.42 8.28 11.09l.02.17zm-38.54-19.84c0 .9.73 1.64 1.64 1.64h10.83c.9 0 1.63-.73 1.63-1.64 0-.92-.73-1.65-1.63-1.65h-10.83c-.9 0-1.64.73-1.64 1.65zm-10.66 30.88h35.42v-21.61a3.85 3.85 0 0 0-3.82-3.86h-27.78a3.85 3.85 0 0 0-3.82 3.86zm6.5 8.14a2.52 2.52 0 0 0-2.5-2.53h-3.97a2.52 2.52 0 0 0-2.5 2.53v1.2a2.52 2.52 0 0 0 2.5 2.52h3.96c1.38 0 2.5-1.14 2.5-2.53zm17.39 1.21h-12.36v2.68h12.36zm14-1.2a2.52 2.52 0 0 0-2.5-2.54h-3.96a2.52 2.52 0 0 0-2.5 2.53v1.2a2.52 2.52 0 0 0 2.5 2.52h3.96c1.38 0 2.5-1.14 2.5-2.53zm-75.94-33.08l1.41 18.3c.02.22-.18.4-.44.4h-6.4c-.25 0-.46-.18-.44-.4l1.38-18.3c.02-.21.25-.39.5-.39h.53v-10l-5.58-2.18c-1.72-.67-1.68-1.7.09-2.28l30.95-10.2c1.76-.57 4.65-.57 6.41.01l30.95 10.2c.33.1.59.24.8.37-1.43-.06-2.95-.1-4.58-.1-23.35 0-25.76 7.06-25.95 9.22v4.44l-1.31.5a9.92 9.92 0 0 1-6.24 0l-23.1-9.03v9.05h.52c.26 0 .48.18.5.39z"></path>
    </defs>
    <use fill="#b0b0b0" xlink:href="#de41bf7f-4036-4d39-a731-f49212154519b"
    transform="translate(-1014 -2127)"></use>
  </symbol>
  <symbol xmlns="http://www.w3.org/2000/svg" xmlns:xlink="http://www.w3.org/1999/xlink"
  viewBox="0 0 70 88" id="shape774-1">
    <title>shape-774</title>
    <desc>A solid styled icon from Orion Icon Library.</desc>
    <defs>
      <path id="de41bf7f-4036-4d39-a731-f49212154519c" d="M717.1 1762.9a35.2 35.2 0 0 1-35.11 35.23 35.2 35.2 0 0 1-35.1-35.22 35.2 35.2 0 0 1 35.1-35.22 35.2 35.2 0 0 1 35.1 35.22zm-6.86 0a28.33 28.33 0 0 0-28.25-28.34 28.33 28.33 0 0 0-28.25 28.35 28.33 28.33 0 0 0 28.25 28.34 28.33 28.33 0 0 0 28.25-28.34zm-34.46-36.85V1721h-3.23c-.56 0-1.02-.46-1.02-1.02v-9.05c0-.56.46-1.02 1.02-1.02h18.88c.56 0 1.02.46 1.02 1.02v9.05c0 .56-.46 1.02-1.02 1.02h-3.23v5.22a40.45 40.45 0 0 0-12.42-.16zm28.42 7.37l5.7-5.43c.24-.22.71-.14 1.02.18l5.63 5.95c.17.17.27.4.27.61 0 .1 0 .29-.15.42l-5.45 5.2a40.44 40.44 0 0 0-7.02-6.93zm-51.53 6.93l-5.45-5.2c-.24-.23-.19-.71.12-1.03l5.64-5.95a.9.9 0 0 1 .66-.3c.13 0 .26.04.35.12l5.7 5.43a40.46 40.46 0 0 0-7.02 6.93zm39.95 14.49h-9.36v-1.56c0-1.66-.1-2.74-.32-3.25-.22-.51-.68-.77-1.39-.77-.57 0-1 .22-1.28.66a3.7 3.7 0 0 0-.43 1.99c0 1.47.3 2.5.88 3.09.57.59 2.25 1.73 5.04 3.44 2.38 1.44 4 2.54 4.87 3.3a8.9 8.9 0 0 1 2.18 3.26c.6 1.4.9 3.14.9 5.23 0 3.35-.8 5.97-2.41 7.88-1.6 1.9-4.02 3.08-7.23 3.53v3.53h-4.3v-3.65a11.2 11.2 0 0 1-6.55-2.89c-1.87-1.68-2.8-4.61-2.8-8.8V1768h9.35v2.3c0 2.53.1 4.1.29 4.7.2.62.66.92 1.4.92.63 0 1.1-.2 1.41-.63.3-.43.46-1.06.46-1.9 0-2.1-.14-3.6-.44-4.51-.29-.91-1.3-1.9-3-2.96a65.28 65.28 0 0 1-5.83-3.97 10.47 10.47 0 0 1-2.66-3.56 11.7 11.7 0 0 1-1.12-5.2c0-2.8.79-5 2.37-6.6 1.58-1.6 3.96-2.58 7.12-2.95v-3h4.3v3c2.89.37 5.05 1.35 6.49 2.92 1.43 1.57 2.15 3.74 2.15 6.51 0 .39-.03.98-.1 1.77z"></path>
    </defs>
    <use fill="#b0b0b0" xlink:href="#de41bf7f-4036-4d39-a731-f49212154519c"
    transform="translate(-647 -1710)"></use>
  </symbol>
  <symbol xmlns="http://www.w3.org/2000/svg" xmlns:xlink="http://www.w3.org/1999/xlink"
  viewBox="0 0 81 81" id="shape777-1">
    <title>shape-777</title>
    <desc>A solid styled icon from Orion Icon Library.</desc>
    <defs>
      <path id="de41bf7f-4036-4d39-a731-f49212154519d" d="M1036.98 1751.44h-8.24a39.85 39.85 0 0 1 39.7-36.71c12.68 0 24.7 6.15 32.19 16.47l2.1 2.9 5.53-5.53v17.14h-17.17l5.6-5.58-1.26-2.05a31.43 31.43 0 0 0-26.99-15.15 31.63 31.63 0 0 0-31.46 28.5zm19.46-6.34a12.05 12.05 0 1 1 24.1.02 12.05 12.05 0 0 1-24.1-.02zm51.82 12.43a39.85 39.85 0 0 1-39.7 36.72 39.9 39.9 0 0 1-32.2-16.48l-2.1-2.9-5.52 5.52v-17.14h17.16l-5.58 5.58 1.25 2.05a31.5 31.5 0 0 0 21.25 14.63c.11.03.23.04.35.06a31.45 31.45 0 0 0 5.28.47h.13a31.63 31.63 0 0 0 31.43-28.5zm-51.18 3.2h22.84c5.17 0 9.37 4.98 9.37 11.13v3.82l-.62.6a29.72 29.72 0 0 1-20.07 7.78 29.56 29.56 0 0 1-20.9-8.55v-3.65c0-6.15 4.2-11.13 9.38-11.13z"></path>
    </defs>
    <use fill="#b0b0b0" xlink:href="#de41bf7f-4036-4d39-a731-f49212154519d"
    transform="translate(-1028 -1714)"></use>
  </symbol>
  <symbol xmlns="http://www.w3.org/2000/svg" xmlns:xlink="http://www.w3.org/1999/xlink"
  viewBox="0 0 64 87" id="shape780-1">
    <title>shape-780</title>
    <desc>A solid styled icon from Orion Icon Library.</desc>
    <defs>
      <path id="de41bf7f-4036-4d39-a731-f49212154519e" d="M335.5 2128.99v71.05a7.24 7.24 0 0 1-7.2 7.23h-48.6a7.24 7.24 0 0 1-7.21-7.23v-71.05a7.24 7.24 0 0 1 7.2-7.24h48.6c3.96 0 7.2 3.26 7.2 7.24zm-42.9 64.27a4.3 4.3 0 1 0-8.6-.02 4.3 4.3 0 0 0 8.6.02zm0-12.86a4.3 4.3 0 1 0-8.6-.02 4.3 4.3 0 0 0 8.6.02zm0-12.85a4.3 4.3 0 1 0-4.29 4.32 4.3 4.3 0 0 0 4.3-4.32zm15.69 25.7a4.3 4.3 0 1 0-8.62-.01 4.3 4.3 0 0 0 8.62.02zm0-12.85a4.3 4.3 0 1 0-4.3 4.32 4.3 4.3 0 0 0 4.3-4.32zm0-12.85a4.3 4.3 0 1 0-4.3 4.32 4.3 4.3 0 0 0 4.3-4.32zm15.68 25.7a4.3 4.3 0 1 0-4.3 4.33 4.3 4.3 0 0 0 4.3-4.32zm0-12.85a4.3 4.3 0 1 0-4.3 4.32 4.3 4.3 0 0 0 4.3-4.32zm0-12.85a4.3 4.3 0 1 0-8.6 0 4.3 4.3 0 0 0 8.6 0zm3.49-32.24a3.54 3.54 0 0 0-3.52-3.54h-39.9a3.54 3.54 0 0 0-3.52 3.54v16.23a3.54 3.54 0 0 0 3.52 3.53h39.9c1.94 0 3.52-1.59 3.52-3.53zm-17.28-1.9l-10.6 20.07h-2.85l10.6-20.06zm-13.4 10.68c-1.6-.02-2.78-.5-3.52-1.44a5.83 5.83 0 0 1-1.14-3.65c.02-1.54.4-2.77 1.14-3.7.74-.92 1.91-1.38 3.52-1.4 1.61.02 2.8.48 3.56 1.4.74.93 1.1 2.16 1.08 3.7a5.6 5.6 0 0 1-1.08 3.65c-.76.94-1.95 1.42-3.56 1.44zm0-2.33c.32 0 .58-.1.77-.29.17-.16.29-.38.37-.64a11.75 11.75 0 0 0 0-3.68c-.08-.3-.2-.51-.37-.67-.19-.17-.45-.25-.77-.25-.62.03-1 .33-1.12.92-.13.57-.2 1.19-.18 1.85-.01.64.05 1.25.18 1.83.13.6.5.91 1.12.93zm17.35 2.45c.74.92 1.1 2.16 1.08 3.7a5.62 5.62 0 0 1-1.08 3.65c-.76.94-1.95 1.42-3.57 1.44-1.6-.02-2.76-.5-3.5-1.44a5.83 5.83 0 0 1-1.13-3.66c.02-1.53.4-2.76 1.13-3.7.74-.9 1.9-1.38 3.5-1.4 1.62.02 2.81.5 3.57 1.4zm-2.28 3.7c0-.66-.05-1.28-.14-1.85-.07-.3-.19-.51-.35-.67-.2-.17-.46-.25-.8-.25-.6.02-.97.32-1.1.92-.13.57-.19 1.19-.17 1.84a7.6 7.6 0 0 0 .16 1.84c.14.6.51.91 1.12.93.33 0 .6-.1.79-.3.16-.16.28-.37.35-.63.1-.58.14-1.2.14-1.84z"></path>
    </defs>
    <use fill="#b0b0b0" xlink:href="#de41bf7f-4036-4d39-a731-f49212154519e"
    transform="translate(-272 -2121)"></use>
  </symbol>
</svg>