<svg viewBox="0 0 100 100" xmlns="http://www.w3.org/2000/svg" style="display: none;"><defs><path id="accouns-payable-7u2ga" d="M297.37 1394.42v28.67a6.43 6.43 0 0 1-6.42 6.44H246.8a6.43 6.43 0 0 1-6.42-6.44V1407l5.1 1.37v1.51h46.77v-15.46c0-.73-.59-1.32-1.31-1.32h-37.49a2.56 2.56 0 0 1 0-5.12h3.88l-5.06-3.97h-7.63s-3.16 5.48-3.16 7.1c0 1.61.66 1.56 3.77 2.99 2.05.94 8.45 1.96 10.7 6.49 2.04 4.14.72 8.18-7.65 5.24-3.46-1.21-18.31-4.98-24.73-7.27-4.4-3.73-11.82-11.78-11.82-11.78v-18.38c5.55 0 27.84.03 35.44 0 3.81-.01 7.5 1.31 10.35 3.86l15.84 15.72h17.56a6.43 6.43 0 0 1 6.42 6.44zm-5.1 28.67v-3.27H245.5v3.27c0 .73.59 1.32 1.31 1.32h44.14c.72 0 1.31-.6 1.31-1.32z"/><path id="accounts-receivable-ip7qa" d="M502.75 1413.52a37.7 37.7 0 0 1-3.31-15.88c0-20.3 15.25-37.02 34.84-39.14v4.28a35.07 35.07 0 0 0-30.62 34.86c0 5.03.87 9.42 2.76 13.75zm37.5-44.4v-10.62c14.78 0 27.41 7.35 34.8 20.25 11.1 19.36 4.52 44.13-14.7 55.31a39.77 39.77 0 0 1-20.06 5.43 40.11 40.11 0 0 1-34.84-20.25l8.88-5.17a29.6 29.6 0 0 0 25.61 14.82c16.39 0 29.66-13.39 29.66-29.9 0-16.4-13.1-29.7-29.35-29.88zm-4.11 12.54v-3.91h7.55v3.91c5.28 1.37 9.12 5.54 9.12 10.47h-7.85c0-2.36-2.25-4.28-5.03-4.28-5.04 0-5.79 4.74-4.36 6.02.66.59 1.93 1.58 5.48 2.04 17.52 2.3 13.14 18.73 2.65 20.8v3.53h-7.55l-.01-3.54c-4.65-1.2-8.17-4.6-8.93-8.76h8.1a5.13 5.13 0 0 0 4.61 2.58c5.04 0 5.93-4.43 4.3-5.94-.58-.52-1.97-1.3-4.42-1.59-17.57-2.04-15.34-18.39-3.66-21.33z"/><path id="asset-management-rm4ta" d="M844.62 1411.2c2.97-.48 8.93-1.32 8.93-1.32l2.2.93 2.17 1.07-.57 4.8-2.36.53-2.36.39-1.36 3.96 1.64 1.75 1.55 1.86-2.48 4.15-2.37-.48-2.32-.6-2.84 3.07.78 2.26.65 2.32-3.95 2.8-1.97-1.41-1.86-1.5-3.86 1.65-.2 2.38-.35 2.4-4.74.94-1.23-2.09-1.1-2.12-4.19-.06-1.15 2.09-1.3 2.05-4.7-1.08-.29-2.4-.13-2.39-3.8-1.76-1.91 1.45-2.01 1.34-3.88-2.9.73-2.3.85-2.24-2.76-3.16-2.33.55-2.39.4-2.35-4.22 1.6-1.8 1.68-1.7-1.24-4.01-2.35-.45-2.34-.6-.44-4.82 2.2-1 1.86-.72c2.96.95 6.17 1.62 9.29 2.1a19.7 19.7 0 0 0 39.35-.11zm16.35-19.01v7.15c0 1.03-.46 2-1.26 2.66-6.64 5.41-22.77 6.6-30.65 6.6h-8.19c-7.87 0-24-1.19-30.64-6.6a3.43 3.43 0 0 1-1.26-2.66v-7.15c0-1.8.93-3.53 2.56-4.75l.98-.72c3.21-10.63 7.9-23.65 19.45-26.86.87 3.65.56 7.54-.1 12.58-.64 4.92-4.23 17.78-3.33 18.31l.05.02c1.08 0 7.1-13.15 7.78-18.33.7-5.35 1.02-9.55-.07-13.24.19-1.05 1.75-2.75 3.07-3.1.61-.17 3.1-.25 5.6-.25 2.5 0 5 .08 5.61.25 1.32.35 2.89 2.05 3.07 3.1-1.08 3.7-.77 7.9-.07 13.24.68 5.19 6.7 18.33 7.78 18.33a.1.1 0 0 0 .06-.02c.9-.53-2.7-13.4-3.33-18.31-.66-5.04-.98-8.93-.1-12.58 11.55 3.2 16.23 16.23 19.45 26.86l.97.72a5.97 5.97 0 0 1 2.57 4.75z"/><path id="bid-maintenance-2aiza" d="M1142.75 1361.8v60.36a4.15 4.15 0 0 1-4.15 4.15h-3.37v3.37a4.15 4.15 0 0 1-4.15 4.15h-3.37v3.87a3.65 3.65 0 0 1-3.65 3.65h-47.77a3.65 3.65 0 0 1-3.65-3.65v-21.16l4.86-3.12v23.06h45.34v-58.93h-45.34v21.34l-4.86 3.12v-25.67a3.65 3.65 0 0 1 3.65-3.65h3.87v-3.38a4.15 4.15 0 0 1 4.15-4.14h3.37v-3.38a4.15 4.15 0 0 1 4.15-4.14h46.77a4.15 4.15 0 0 1 4.15 4.14zm-12.39 8.23h-45.33v2.66h39.03a3.65 3.65 0 0 1 3.65 3.65v52.62h2.65zm7.52-7.52h-45.33v2.66h38.53a4.15 4.15 0 0 1 4.15 4.14v52.13h2.65zm-71.13 46.21l14.03-9a14.3 14.3 0 0 1-.55-7.96 14.41 14.41 0 0 1 17.13-11 14.41 14.41 0 0 1 11 17.13 14.41 14.41 0 0 1-23.6 7.7l-14.18 9.1c-.5.32-1.19.17-1.51-.33l-2.65-4.12a1.1 1.1 0 0 1 .33-1.52zm36.48-11.95a9.15 9.15 0 0 0-17.86-3.9 9.15 9.15 0 0 0 17.86 3.9z"/><path id="capital-assets-189ja" d="M583.24 1702.66a22.84 22.84 0 0 1-22.8 22.89 22.84 22.84 0 0 1-22.8-22.89 22.84 22.84 0 0 1 22.8-22.88 22.84 22.84 0 0 1 22.8 22.88zm-5.7 0c0-9.48-7.65-17.16-17.1-17.16-9.44 0-17.1 7.68-17.1 17.16s7.66 17.17 17.1 17.17c9.45 0 17.1-7.69 17.1-17.17zm2.85-29.1c.02.2-.1.39-.3.46-.18.07-.4.02-.52-.14-5.85-8.4-12.64-8.6-19.13-8.47v4.53c0 .48-.25.92-.66 1.13-.4.2-.89.15-1.24-.15l-11.9-10.2a1.3 1.3 0 0 1 0-1.95l11.9-10.19c.35-.3.84-.36 1.24-.15.4.2.66.64.66 1.12v4.93c11.26 1.05 18.85 7.4 19.95 19.08zm-79.8 23.87c-.01-.2.11-.39.3-.46s.41-.02.53.15c5.84 8.39 12.64 8.59 19.13 8.46v-4.53c0-.48.25-.92.66-1.13.4-.2.88-.14 1.23.15l11.91 10.2c.28.24.44.6.44.97 0 .38-.16.74-.44.98l-11.9 10.2c-.36.3-.84.35-1.24.14-.4-.2-.66-.64-.66-1.12v-4.93c-11.26-1.05-18.85-7.4-19.95-19.08zm62.7 15.91v2.76c0 .48-.45.87-1 .87h-3.7c-.55 0-1-.4-1-1.1v-2.39c-2.31-.05-3.73-.74-5.3-1.5-.32-.16-.48-.48-.36-.78l1.03-3.08c.07-.2.25-.35.49-.42.09-.03.19-.05.28-.05.15 0 .3.03.42.1 1.22.59 3.9 1.11 5.88 1.11 2.1 0 3.64-.43 3.64-1.59 0-.9-1.07-1.58-4.3-2.57-4.54-1.36-7.48-3.76-7.48-6.49 0-2.8 2.05-5.34 5.7-6.15v-2.84c0-.47.45-.86 1-.86h3.7c.55 0 1 .39 1 .86v2.62c1.85.16 4.1 1.07 5.33 1.73.31.16.45.48.33.76l-1.05 2.98a.76.76 0 0 1-.5.42 1 1 0 0 1-.72-.06c-.76-.4-3.77-1.23-5.83-1.23-1.88 0-3.53.41-3.53 1.62 0 1.12 1.28 1.66 4.37 2.66 4.65 1.43 7.3 3.19 7.3 6.23 0 3.09-1.74 5.9-5.7 6.4zm-19.95-45a22.84 22.84 0 0 1-22.8 22.88 22.84 22.84 0 0 1-22.8-22.89 22.84 22.84 0 0 1 22.8-22.88 22.84 22.84 0 0 1 22.8 22.88zm-13.96 4.28c0-3.04-2.74-4.8-7.55-6.23-3.2-1-4.5-1.54-4.5-2.66 0-1.2 1.69-1.62 3.64-1.62 2.12 0 5.8.83 6.6 1.23a1.05 1.05 0 0 0 .73.06.78.78 0 0 0 .52-.42l1.09-3.26c.12-.29-.03-.6-.35-.77a20.9 20.9 0 0 0-6.16-1.72v-2.33c0-.48-.47-.87-1.04-.87h-3.62c-.58 0-1.04.39-1.04.87v2.83c-3.78.81-5.99 3.36-5.99 6.16 0 2.72 3.04 5.12 7.73 6.48 3.34 1 4.44 1.67 4.44 2.57 0 1.16-1.6 1.88-3.76 1.88-2.05 0-5.4-.53-6.64-1.11a1.01 1.01 0 0 0-.74-.05c-.24.07-.42.22-.5.42l-1.06 3.36c-.12.3.04.62.38.79 1.61.75 3.74 1.45 6.14 1.5v1.8c0 .72.46 1.1 1.04 1.1h3.62c.57 0 1.04-.38 1.04-.86v-2.76c4.1-.49 5.98-3.3 5.98-6.4z"/><path id="civic-admin-w85sa" d="M190.52 1407.99h-45.05l.2-2.24 2.8-46.72 14.66-11.04.05 57.45h2.57v-56.7l14.24 10.3v4.78l-4.9-3.51-7.01 8.77-.05 3.06 5.65-7.28v40.74h2.34v-42.23l10.96 7.81 3.27 34.57zm-33.59-39.68l4-2.69.1-4.34-4.1 2.81zm-2.51 4.47l-4.23 3.2-.26 4.98 4.4-2.94zm0-7.67l-3.96 2.56-.27 5.5 4.23-3.2zm.26-8.04l-4.22 3.19-.27 4.98 4.5-3.32zm6.35 19.8l-4.05 2.63-.05 5.16 3.96-2.2zm.02-8.15l-4.12 2.78v4.85l4.1-2.93zm6.71-11.11l3.24 2.22-.07-4.42-3.17-2.3zm10.17 14.3l2.9 1.6-.12-3.77-2.8-1.94zm3.04 4.93l-2.77-1.4.06 3.57 2.71 1.66zm1.64-2.55l2.85 1.69-.13-3.84-2.77-1.53zm3.12 8.68l-.27-4.06-2.77-1.44.13 3.96z"/><path id="education-lplda" d="M473.63 1387.32l-3.2-8.8-11.89 4.58c-1.13.44-2.58.68-4.08.68s-2.94-.24-4.08-.68l-13.06-5.04-3.37 9.26c-.43 1.17 0 2.9.94 3.84 0 0 6.04 6.08 18.97 6.08 13.93 0 19-5.98 19-5.98.84-1 1.2-2.77.77-3.94zm12.2-19.33l-28.42-9.24a11.17 11.17 0 0 0-5.9 0l-28.41 9.24c-1.62.52-1.66 1.45-.08 2.06l28.58 11.03c1.57.6 4.15.6 5.73 0l21.21-8.19v8.2h-.47c-.24 0-.45.16-.46.35l-1.3 16.6c-.02.19.17.34.4.34h5.88c.24 0 .42-.15.4-.35l-1.27-16.59c-.01-.2-.22-.35-.46-.35h-.47v-9.07l5.12-1.97c1.57-.6 1.54-1.54-.08-2.06z"/><path id="justice-d6v9a" d="M761.06 1388.1v.12a16.06 16.06 0 0 1-11.66 15.27c-3.34.96-9.39 1.11-11.95 5.5-2.56-4.39-8.61-4.54-11.95-5.5a16.06 16.06 0 0 1-11.66-15.27v-.12c0-3.39 1-5.5 1.42-6.69.9-2.51 1.9-4.9 1.9-7.9 0-6.28-3.16-10.06-3.16-10.06l7.05-8.45h32.8l7.04 8.45s-3.14 3.78-3.14 10.05c0 3.01.99 5.4 1.89 7.91.41 1.18 1.42 3.3 1.42 6.69zm-7.18-9.1h-12.55l-3.88-11.87-3.88 11.87h-12.55l10.14 7.34-3.88 11.87 10.17-7.34 10.17 7.34-3.88-11.87z"/><path id="performance-mlbna" d="M1022.65 1379.24h24.21v2.23a26.51 26.51 0 0 1-26.43 26.53 26.51 26.51 0 0 1-26.42-26.53 26.5 26.5 0 0 1 26.42-26.53h2.22zm-18.57 16.96l14.13-12.73v-23.96a22.07 22.07 0 0 0-14.13 36.7zm49.91-21.67v2.23h-28.64V1348h2.22a26.5 26.5 0 0 1 26.42 26.53zm-9.78-14.39l-12.11 12.16h7.47l7.63-7.66a22.13 22.13 0 0 0-2.99-4.5zm-14.42 9.84l12.1-12.16a22.05 22.05 0 0 0-4.48-3l-7.62 7.65zm0-17.41v5.25l4.33-4.34c-1.4-.44-2.84-.76-4.33-.91zm19.65 19.73c-.15-1.5-.47-2.95-.9-4.35l-4.34 4.35z"/></defs><symbol viewBox="0 0 87 62" id="icon-accouns-payable"><title>accouns-payable</title><g><g transform="translate(-211 -1368)"><use fill="#2f9fc0" xlink:href="#accouns-payable-7u2ga"/></g></g></symbol><symbol viewBox="0 0 82 82" id="icon-accounts-receivable"><title>accounts-receivable</title><g><g transform="translate(-499 -1358)"><use fill="#6bb5c0" xlink:href="#accounts-receivable-ip7qa"/></g></g></symbol><symbol viewBox="0 0 72 88" id="icon-asset-management"><title>asset-management</title><g><g transform="translate(-789 -1355)"><use fill="#1078c0" xlink:href="#asset-management-rm4ta"/></g></g></symbol><symbol viewBox="0 0 77 85" id="icon-bid-maintenance"><title>bid-maintenance</title><g><g transform="translate(-1066 -1357)"><use fill="#2f9fc0" xlink:href="#bid-maintenance-2aiza"/></g></g></symbol><symbol viewBox="0 0 98 74" id="icon-bus"><title>bus</title> <g> <g transform="translate(-1014 -2127)"> <g> <path id="bus-jgt8a" d="M1046.1,2169.7c-11.7-1.1-16.2-6.4-16.2-6.4c-0.9-1.2-1.3-2.8-0.8-4.3l3.5-9.7l12.9,5.1
				c1.7,0.6,3.6,0.9,5.4,0.7c-1,0.9-1.8,1.9-2.6,3.2c-1.4,2.5-2.2,5.3-2.3,8.2V2169.7z M1112,2166.3v6.4c0,0.8-0.6,1.4-1.4,1.4h-3.2
				c-0.8,0-1.4-0.6-1.4-1.4v-6.4c0-0.8,0.6-1.4,1.4-1.4c-0.3-1.8-1.2-4.5-3.7-5.3v39.7c0,0.8-0.7,1.5-1.5,1.5h-6.3
				c-0.8,0-1.5-0.7-1.5-1.5v-4.9h-27.7v4.9c0,0.8-0.7,1.5-1.5,1.5h-6.3c-0.8,0-1.5-0.7-1.5-1.5v-39.7c-2.5,0.8-3.4,3.5-3.7,5.3
				c0.8,0,1.4,0.6,1.4,1.4v6.4c0,0.8-0.6,1.4-1.4,1.4h-3.2c-0.8,0-1.4-0.6-1.4-1.4v-6.4l0-0.2c0.2-3.7,2.1-10.2,8.3-11.1v-7.7
				c0,0,0.6-6.7,23.2-6.7c22.6,0,23.2,6.7,23.2,6.7v7.7c6.2,0.9,8.1,7.4,8.3,11.1L1112,2166.3L1112,2166.3z M1073.5,2146.5
				c0,0.9,0.7,1.6,1.6,1.6h10.8c0.9,0,1.6-0.7,1.6-1.6c0-0.9-0.7-1.6-1.6-1.6h-10.8C1074.2,2144.8,1073.5,2145.6,1073.5,2146.5z
				 M1062.8,2177.4h35.4v-21.6c0-2.1-1.7-3.8-3.8-3.9h-27.8c-2.1,0-3.8,1.7-3.8,3.9L1062.8,2177.4z M1069.3,2185.5
				c0-1.4-1.1-2.5-2.5-2.5h-4c-1.4,0-2.5,1.1-2.5,2.5v1.2c0,1.4,1.1,2.5,2.5,2.5h4c1.4,0,2.5-1.1,2.5-2.5L1069.3,2185.5z
				 M1086.7,2186.7h-12.4v2.7h12.4V2186.7z M1100.7,2185.5c0-1.4-1.1-2.5-2.5-2.5c0,0,0,0,0,0h-4c-1.4,0-2.5,1.1-2.5,2.5v1.2
				c0,1.4,1.1,2.5,2.5,2.5h4c1.4,0,2.5-1.1,2.5-2.5V2185.5z M1024.8,2152.4l1.4,18.3c0,0.2-0.2,0.4-0.4,0.4h-6.4
				c-0.3,0-0.5-0.2-0.4-0.4l1.4-18.3c0-0.2,0.3-0.4,0.5-0.4h0.5v-10l-5.6-2.2c-1.7-0.7-1.7-1.7,0.1-2.3l31-10.2
				c1.8-0.6,4.7-0.6,6.4,0l30.9,10.2c0.3,0.1,0.6,0.2,0.8,0.4c-1.4-0.1-2.9-0.1-4.6-0.1c-23.3,0-25.8,7.1-25.9,9.2v4.4l-1.3,0.5
				c-2,0.7-4.2,0.7-6.2,0l-23.1-9v9.1h0.5C1024.5,2152.1,1024.7,2152.2,1024.8,2152.4L1024.8,2152.4z"/> </g> </g> </g> </symbol><symbol viewBox="0 0 64 87" id="icon-calc"><title>calc</title> <g> <g transform="translate(-272 -2121)"> <g> <path id="calc-_x35_ej0a" d="M335.5,2129v71.1c0,4-3.2,7.2-7.2,7.2h-48.6c-4,0-7.2-3.2-7.2-7.2V2129c0-4,3.2-7.2,7.2-7.2
				h48.6C332.3,2121.8,335.5,2125,335.5,2129L335.5,2129z M292.6,2193.3c0-2.4-1.9-4.3-4.3-4.3c-2.4,0-4.3,1.9-4.3,4.3l0,0
				c0,2.4,1.9,4.3,4.3,4.3C290.7,2197.6,292.6,2195.6,292.6,2193.3z M292.6,2180.4c0-2.4-1.9-4.3-4.3-4.3c-2.4,0-4.3,1.9-4.3,4.3
				l0,0c0,2.4,1.9,4.3,4.3,4.3C290.7,2184.7,292.6,2182.8,292.6,2180.4z M292.6,2167.5c0-2.4-1.9-4.3-4.3-4.3
				c-2.4,0-4.3,1.9-4.3,4.3c0,2.4,1.9,4.3,4.3,4.3C290.7,2171.9,292.6,2169.9,292.6,2167.5C292.6,2167.6,292.6,2167.6,292.6,2167.5
				L292.6,2167.5z M308.3,2193.2c0-2.4-1.9-4.3-4.3-4.3c-2.4,0-4.3,1.9-4.3,4.3l0,0c0,2.4,1.9,4.3,4.3,4.3
				C306.4,2197.6,308.3,2195.6,308.3,2193.2L308.3,2193.2z M308.3,2180.4c0-2.4-1.9-4.3-4.3-4.3c-2.4,0-4.3,1.9-4.3,4.3
				c0,2.4,1.9,4.3,4.3,4.3C306.4,2184.7,308.3,2182.8,308.3,2180.4C308.3,2180.4,308.3,2180.4,308.3,2180.4z M308.3,2167.5
				c0-2.4-1.9-4.3-4.3-4.3c-2.4,0-4.3,1.9-4.3,4.3c0,2.4,1.9,4.3,4.3,4.3C306.4,2171.9,308.3,2169.9,308.3,2167.5
				C308.3,2167.6,308.3,2167.6,308.3,2167.5z M324,2193.2c0-2.4-2-4.3-4.3-4.3c-2.4,0-4.3,2-4.3,4.3c0,2.4,1.9,4.3,4.3,4.3
				C322,2197.6,324,2195.7,324,2193.2C324,2193.3,324,2193.3,324,2193.2L324,2193.2z M324,2180.4c0-2.4-1.9-4.3-4.3-4.3
				c-2.4,0-4.3,1.9-4.3,4.3c0,2.4,1.9,4.3,4.3,4.3C322,2184.7,324,2182.8,324,2180.4C324,2180.4,324,2180.4,324,2180.4z M324,2167.5
				c0-2.4-1.9-4.3-4.3-4.3c-2.4,0-4.3,1.9-4.3,4.3s1.9,4.3,4.3,4.3C322,2171.8,324,2169.9,324,2167.5z M327.5,2135.3
				c0-1.9-1.6-3.5-3.5-3.5H284c-1.9,0-3.5,1.6-3.5,3.5v16.2c0,1.9,1.6,3.5,3.5,3.5h39.9c1.9,0,3.5-1.6,3.5-3.5V2135.3z
				 M310.2,2133.4l-10.6,20.1h-2.9l10.6-20.1L310.2,2133.4z M296.8,2144.1c-1.6,0-2.8-0.5-3.5-1.4c-0.8-1.1-1.2-2.3-1.1-3.6
				c0-1.5,0.4-2.8,1.1-3.7c0.7-0.9,1.9-1.4,3.5-1.4c1.6,0,2.8,0.5,3.6,1.4c0.7,0.9,1.1,2.2,1.1,3.7c0.1,1.3-0.3,2.6-1.1,3.6
				C299.6,2143.6,298.4,2144.1,296.8,2144.1z M296.8,2141.8c0.3,0,0.6-0.1,0.8-0.3c0.2-0.2,0.3-0.4,0.4-0.6c0.2-1.2,0.2-2.5,0-3.7
				c-0.1-0.3-0.2-0.5-0.4-0.7c-0.2-0.2-0.5-0.3-0.8-0.3c-0.6,0-1,0.3-1.1,0.9c-0.1,0.6-0.2,1.2-0.2,1.9c0,0.6,0,1.3,0.2,1.8
				C295.8,2141.4,296.2,2141.7,296.8,2141.8L296.8,2141.8z M314.1,2144.2c0.7,0.9,1.1,2.2,1.1,3.7c0.1,1.3-0.3,2.6-1.1,3.6
				c-0.8,0.9-2,1.4-3.6,1.4c-1.6,0-2.8-0.5-3.5-1.4c-0.8-1.1-1.2-2.3-1.1-3.7c0-1.5,0.4-2.8,1.1-3.7c0.7-0.9,1.9-1.4,3.5-1.4
				C312.2,2142.8,313.4,2143.3,314.1,2144.2L314.1,2144.2z M311.9,2147.9c0-0.7,0-1.3-0.1-1.9c-0.1-0.3-0.2-0.5-0.4-0.7
				c-0.2-0.2-0.5-0.3-0.8-0.3c-0.6,0-1,0.3-1.1,0.9c-0.1,0.6-0.2,1.2-0.2,1.8c0,0.6,0,1.2,0.2,1.8c0.1,0.6,0.5,0.9,1.1,0.9
				c0.3,0,0.6-0.1,0.8-0.3c0.2-0.2,0.3-0.4,0.4-0.6C311.8,2149.2,311.9,2148.5,311.9,2147.9L311.9,2147.9z"/> </g> </g> </g> </symbol><symbol viewBox="0 0 87 81" id="icon-capital-assets"><title>capital-assets</title><g><g transform="translate(-497 -1645)"><use fill="#1078c0" xlink:href="#capital-assets-189ja"/></g></g></symbol><symbol viewBox="0 0 46 60" id="icon-civic-admin"><title>civic-admin</title><g><g transform="translate(-145 -1348)"><use fill="#2f9fc0" xlink:href="#civic-admin-w85sa"/></g></g></symbol><symbol viewBox="0 0 65 41" id="icon-education"><title>education</title><g><g transform="translate(-422 -1358)"><use fill="#2f9fc0" xlink:href="#education-lplda"/></g></g></symbol><symbol viewBox="0 0 87 88" id="icon-envelope"><title>envelope</title> <g> <g transform="translate(-640 -2120)"> <g> <path id="envelope-uv8la" d="M665.3,2154.7c2.4-4.5,4.7-9.1,7-13.6c0-0.1,0.1-0.2,0.2-0.4l2.1,4c1.8,3.5,3.6,7,5.4,10.6
				c2.2,4.1,0.6,9.2-3.5,11.3c-0.9,0.5-1.9,0.8-3,0.9c-4.5,0.6-8.7-2.4-9.4-6.9C663.9,2158.6,664.3,2156.5,665.3,2154.7
				L665.3,2154.7z M726.2,2155.3v49.3c0,1.9-1.6,3.5-3.5,3.5l0,0h-78.5c-1.9,0-3.5-1.6-3.5-3.5l0,0v-49.3l7.8-6.5v-17.8H670
				l13.5-11.2l13.5,11.2h21.4v17.8L726.2,2155.3z M654.4,2164.2l29.1,18.8l29.1-18.8v-27.3h-58.2L654.4,2164.2z M720.4,2166.1
				l-1.9,1.3l-5.9,3.8l-25.9,16.8l-1.2,0.8l-2,1.3l-2-1.3l-1.2-0.8l-25.9-16.8l-5.9-3.8l-2-1.3v36.2h73.8L720.4,2166.1z
				 M694.3,2150.2l9.9-11.5c0,0-1.2,3.5-2.7,7.7l-2.7,7.7h3.8c2.1,0,3.8,0,3.8,0l-1.4,1.7c-10,12.1-18.2,22-18.2,22l2.6-8.1
				c1.8-5.5,2.6-8.1,2.6-8.1h-7.5L694.3,2150.2L694.3,2150.2z"/> </g> </g> </g> </symbol><symbol viewBox="0 0 48 54" id="icon-justice"><title>justice</title><g><g transform="translate(-713 -1355)"><use fill="#2f9fc0" xlink:href="#justice-d6v9a"/></g></g></symbol><symbol viewBox="0 0 60 60" id="icon-performance"><title>performance</title><g><g transform="translate(-994 -1348)"><use fill="#2f9fc0" xlink:href="#performance-mlbna"/></g></g></symbol><symbol viewBox="0 0 70 88" id="icon-time-money"><title>time-money</title> <g> <g transform="translate(-647 -1710)"> <g> <path id="time-money-_x38_zq6a" d="M717.1,1762.9c0,19.4-15.7,35.2-35.1,35.2c-19.4-0.1-35.1-15.8-35.1-35.2
				c0-19.4,15.7-35.2,35.1-35.2C701.4,1727.7,717.1,1743.5,717.1,1762.9L717.1,1762.9z M710.2,1762.9c0-15.6-12.6-28.3-28.3-28.3
				c-15.6,0-28.3,12.7-28.3,28.3c0,15.6,12.6,28.3,28.3,28.3C697.6,1791.2,710.2,1778.5,710.2,1762.9L710.2,1762.9z M675.8,1726.1
				v-5.1h-3.2c-0.6,0-1-0.5-1-1v-9.1c0-0.6,0.5-1,1-1h18.9c0.6,0,1,0.5,1,1v9.1c0,0.6-0.5,1-1,1h-3.2v5.2
				C684.1,1725.5,679.9,1725.5,675.8,1726.1L675.8,1726.1z M704.2,1733.4l5.7-5.4c0.2-0.2,0.7-0.1,1,0.2l5.6,5.9
				c0.2,0.2,0.3,0.4,0.3,0.6c0,0.1,0,0.3-0.2,0.4l-5.5,5.2C709.2,1737.8,706.8,1735.4,704.2,1733.4L704.2,1733.4z M652.7,1740.4
				l-5.5-5.2c-0.2-0.2-0.2-0.7,0.1-1l5.6-5.9c0.2-0.2,0.4-0.3,0.7-0.3c0.1,0,0.3,0,0.3,0.1l5.7,5.4
				C657.1,1735.4,654.7,1737.8,652.7,1740.4L652.7,1740.4z M692.6,1754.8h-9.4v-1.6c0-1.7-0.1-2.7-0.3-3.3c-0.2-0.5-0.7-0.8-1.4-0.8
				c-0.6,0-1,0.2-1.3,0.7c-0.3,0.6-0.5,1.3-0.4,2c0,1.5,0.3,2.5,0.9,3.1c0.6,0.6,2.3,1.7,5,3.4c2.4,1.4,4,2.5,4.9,3.3
				c1,0.9,1.7,2,2.2,3.3c0.6,1.4,0.9,3.1,0.9,5.2c0,3.3-0.8,6-2.4,7.9c-1.6,1.9-4,3.1-7.2,3.5v3.5h-4.3v-3.7
				c-2.4-0.2-4.7-1.2-6.5-2.9c-1.9-1.7-2.8-4.6-2.8-8.8v-1.8h9.3v2.3c0,2.5,0.1,4.1,0.3,4.7c0.2,0.6,0.7,0.9,1.4,0.9
				c0.6,0,1.1-0.2,1.4-0.6c0.3-0.4,0.5-1.1,0.5-1.9c0-2.1-0.1-3.6-0.4-4.5c-0.3-0.9-1.3-1.9-3-3c-2-1.2-4-2.5-5.8-4
				c-1.1-1-2-2.2-2.7-3.6c-0.8-1.6-1.2-3.4-1.1-5.2c0-2.8,0.8-5,2.4-6.6s4-2.6,7.1-2.9v-3h4.3v3c2.9,0.4,5,1.3,6.5,2.9
				c1.4,1.6,2.2,3.7,2.2,6.5C692.7,1753.5,692.7,1754.1,692.6,1754.8L692.6,1754.8z"/> </g> </g> </g> </symbol><symbol viewBox="0 0 81 81" id="icon-user-sync"><title>user-sync</title> <g> <g transform="translate(-1028 -1714)"> <g> <path id="user-sync-_x36_v1pa" d="M1037,1751.4h-8.2c1.6-20.7,18.9-36.7,39.7-36.7c12.7,0,24.7,6.2,32.2,16.5l2.1,2.9l5.5-5.5
				v17.1h-17.2l5.6-5.6l-1.3-2.1c-5.7-9.4-16-15.2-27-15.2C1052.2,1722.9,1038.6,1735.3,1037,1751.4L1037,1751.4z M1056.4,1745.1
				c0-6.7,5.4-12.1,12-12.1c6.7,0,12.1,5.4,12.1,12c0,0,0,0,0,0c0,6.7-5.4,12-12.1,12C1061.8,1757.1,1056.4,1751.7,1056.4,1745.1z
				 M1108.3,1757.5c-1.6,20.7-18.9,36.7-39.7,36.7c-12.7,0-24.7-6.2-32.2-16.5l-2.1-2.9l-5.5,5.5v-17.1h17.2l-5.6,5.6l1.3,2.1
				c4.7,7.7,12.4,13,21.3,14.6c0.1,0,0.2,0,0.3,0.1c1.7,0.3,3.5,0.5,5.3,0.5h0.1c16.2,0,29.8-12.3,31.4-28.5L1108.3,1757.5z
				 M1057.1,1760.7h22.8c5.2,0,9.4,5,9.4,11.1v3.8l-0.6,0.6c-5.5,5-12.6,7.8-20.1,7.8c-7.8,0-15.3-3-20.9-8.6v-3.7
				C1047.7,1765.7,1051.9,1760.7,1057.1,1760.7L1057.1,1760.7z"/> </g> </g> </g> </symbol><symbol viewBox="0 0 79 65" id="icon-users"><title>users</title> <g> <g transform="translate(-265 -1722)"> <g> <path id="users-eu8wa" d="M319.1,1722.6c3.4,0,6.2,2.8,6.2,6.2c0,3.4-2.8,6.2-6.2,6.2s-6.2-2.8-6.2-6.2
				C313,1725.3,315.7,1722.6,319.1,1722.6z M329.5,1741.4v14.3c0,2.2-1.8,3.9-4,3.9h-1l0,0.2v20.6c0,1.7-1.4,3-3.1,3c0,0,0,0,0,0
				h-4.6c-1.7,0-3-1.4-3-3v-19.8c1.6-0.7,2.7-2.2,2.9-3.9h0.1v-16.8c0-0.9-0.2-1.7-0.6-2.4h9.3
				C327.7,1737.5,329.5,1739.2,329.5,1741.4L329.5,1741.4z M333.3,1722.6c3.4,0.2,6,3.2,5.7,6.6c-0.2,3.1-2.7,5.5-5.7,5.7
				c-3.4,0.3-6.4-2.3-6.6-5.7s2.3-6.4,5.7-6.6C332.7,1722.5,333,1722.5,333.3,1722.6L333.3,1722.6z M343.7,1741.4v14.3
				c0,2.2-1.8,4-4,3.9h-1l0,0.2v20.6c0,1.7-1.4,3-3.1,3c0,0,0,0,0,0H331c-1.7,0-3.1-1.4-3.1-3c0,0,0,0,0,0v-19.8
				c1.6-0.7,2.7-2.2,3-3.9h0.1v-16.8c0-0.9-0.2-1.7-0.6-2.4h9.3C341.9,1737.5,343.6,1739.2,343.7,1741.4
				C343.7,1741.4,343.7,1741.4,343.7,1741.4L343.7,1741.4z M289.6,1722.6c3.4,0,6.2,2.8,6.2,6.2c0,3.4-2.8,6.2-6.2,6.2
				s-6.2-2.8-6.2-6.2C283.4,1725.3,286.2,1722.6,289.6,1722.6z M295,1760.7v19.8c0,1.7-1.4,3-3.1,3c0,0,0,0,0,0h-4.6
				c-1.7,0-3-1.4-3-3v-20.6v-0.2h-1c-2.2,0-4-1.8-4-3.9v-14.3c0-2.2,1.8-4,4-4h9.3c-0.4,0.8-0.6,1.6-0.6,2.4v16.1
				C292,1758,293.1,1759.8,295,1760.7L295,1760.7z M275.7,1722.6c3.4,0,6.2,2.8,6.2,6.2c0,3.4-2.8,6.2-6.2,6.2s-6.2-2.8-6.2-6.2
				C269.5,1725.3,272.3,1722.6,275.7,1722.6z M281,1760.7v19.8c0,1.7-1.4,3-3.1,3c0,0,0,0,0,0h-4.6c-1.7,0-3-1.4-3-3v-20.6v-0.2h-1
				c-2.2,0-4-1.8-4-3.9v-14.3c0-2.2,1.8-4,4-4h9.3c-0.4,0.8-0.6,1.6-0.6,2.4v16.1C278.1,1758,279.2,1759.8,281,1760.7L281,1760.7z
				 M298.2,1728.7c0-3.4,2.8-6.2,6.2-6.2s6.2,2.8,6.2,6.2s-2.8,6.2-6.2,6.2S298.2,1732.1,298.2,1728.7z M315.2,1756
				c0,2-1.6,3.7-3.7,3.7c0,0,0,0,0,0h-1.1l-0.8,0l0.1,0.8v23.3c0,1.5-1.2,2.6-2.6,2.6h-5.2c-1.5,0-2.6-1.2-2.6-2.6c0,0,0,0,0,0
				v-23.2l0-0.2l0.1-0.8h-1.9c-2,0-3.7-1.6-3.7-3.7c0,0,0,0,0,0v-16.1c0-2,1.6-3.7,3.7-3.7c0,0,0,0,0,0h14.3c2,0,3.7,1.6,3.7,3.7
				l0,0L315.2,1756z"/> </g> </g> </g> </symbol></svg>